<svg width="139" height="131" viewBox="0 0 139 131" fill="none" xmlns="http://www.w3.org/2000/svg">
<path d="M126 76.1061V125.103C126 127.252 124.245 129 122.079 129H17.921C15.7549 129 14 127.252 14 125.103V76.1061C14 74.9954 14.4753 73.9849 15.2339 73.2748C15.2704 73.1474 15.3344 73.0381 15.4441 72.938L69.4425 21.2185C69.7532 20.9272 70.2468 20.9272 70.5575 21.2185L124.565 72.938C124.675 73.0472 124.748 73.1656 124.775 73.293C125.534 73.994 126 74.9954 126 76.1061Z" fill="black" stroke="black" stroke-width="3" stroke-miterlimit="10"/>
<path d="M138.401 67.0451L136.551 69.0153C135.712 69.9183 134.282 69.973 133.389 69.1248L69.1238 9.02568L5.64283 69.3802C4.74975 70.2375 3.32813 70.2011 2.47151 69.2981L0.612466 67.3462C-0.235041 66.4523 -0.198592 65.0203 0.694479 64.172L67.4744 0.679833C67.5837 0.579501 67.6931 0.488301 67.8207 0.406211C67.8936 0.360605 67.9665 0.324107 68.0394 0.278501C68.8595 -0.177555 69.9166 -0.0772079 70.6457 0.606876L93.0363 21.549V7.20146C93.0363 5.68735 94.2756 4.45599 95.7884 4.45599H113.176C114.689 4.45599 115.928 5.68735 115.928 7.20146L116.028 43.0475L138.291 63.871C139.193 64.7192 139.239 66.1422 138.401 67.0451Z" fill="black"/>
</svg>
