<svg width="220" height="183" viewBox="0 0 220 183" fill="none" xmlns="http://www.w3.org/2000/svg">
<path d="M160.197 14.1221H8.32129V154.472H160.197V14.1221Z" fill="#7E7F7A" stroke="black" stroke-miterlimit="10"/>
<path d="M47.6915 8.49626V160.983C47.6915 162.992 46.7683 164.8 45.3338 165.998C44.1986 166.921 42.7516 167.495 41.1798 167.495C39.6081 167.495 38.161 166.921 37.0383 165.998C35.6038 164.8 34.6807 162.992 34.6807 160.983V8.49626C34.6807 4.91611 37.5997 1.99707 41.1798 1.99707C42.9637 1.99707 44.5978 2.7331 45.7829 3.90569C46.9555 5.07828 47.6915 6.69995 47.6915 8.49626Z" fill="#ADADAD" stroke="black" stroke-miterlimit="10"/>
<path d="M72.2286 8.50875C72.2286 4.91247 69.316 1.99707 65.7232 1.99707C62.1303 1.99707 59.2178 4.91247 59.2178 8.50875V160.983C59.2178 164.58 62.1303 167.495 65.7232 167.495C69.316 167.495 72.2286 164.58 72.2286 160.983V8.50875Z" fill="#ADADAD" stroke="black" stroke-miterlimit="10"/>
<path d="M96.7774 8.50875C96.7774 4.91247 93.8648 1.99707 90.272 1.99707C86.6792 1.99707 83.7666 4.91247 83.7666 8.50875V160.983C83.7666 164.58 86.6792 167.495 90.272 167.495C93.8648 167.495 96.7774 164.58 96.7774 160.983V8.50875Z" fill="#ADADAD" stroke="black" stroke-miterlimit="10"/>
<path d="M122.624 8.50875C122.624 4.91247 119.712 1.99707 116.119 1.99707C112.526 1.99707 109.613 4.91247 109.613 8.50875V160.983C109.613 164.58 112.526 167.495 116.119 167.495C119.712 167.495 122.624 164.58 122.624 160.983V8.50875Z" fill="#ADADAD" stroke="black" stroke-miterlimit="10"/>
<path d="M148.472 7.0116C148.472 3.41532 145.559 0.5 141.966 0.5C138.374 0.5 135.461 3.41532 135.461 7.0116V159.486C135.461 163.082 138.374 165.998 141.966 165.998C145.559 165.998 148.472 163.082 148.472 159.486V7.0116Z" fill="#ADADAD" stroke="black" stroke-miterlimit="10"/>
<path d="M21.6573 8.50875C21.6573 4.91247 18.7447 1.99707 15.1519 1.99707C11.5591 1.99707 8.64648 4.91247 8.64648 8.50875V160.983C8.64648 164.58 11.5591 167.495 15.1519 167.495C18.7447 167.495 21.6573 164.58 21.6573 160.983V8.50875Z" fill="#ADADAD" stroke="black" stroke-miterlimit="10"/>
<path d="M211.653 1.99707H167.868C163.631 1.99707 160.196 5.43186 160.196 9.66886V159.823C160.196 164.06 163.631 167.495 167.868 167.495H211.653C215.89 167.495 219.325 164.06 219.325 159.823V9.66886C219.325 5.43186 215.89 1.99707 211.653 1.99707Z" fill="#D8D8D8" stroke="black" stroke-miterlimit="10"/>
<path d="M61.7365 180.231H21.6562L30.2137 165.998H37.0372C38.1599 166.921 39.6069 167.495 41.1787 167.495C42.7505 167.495 44.1975 166.921 45.3326 165.998H54.2019L61.7365 180.231Z" fill="#ADADAD" stroke="black" stroke-miterlimit="10"/>
<path d="M167.868 167.495L159.723 181.99H201.662L191.994 167.495H167.868Z" fill="#ADADAD" stroke="black" stroke-miterlimit="10"/>
<path d="M8.30898 18.0266C8.30898 15.8702 6.56087 14.1221 4.40448 14.1221C2.24809 14.1221 0.5 15.8702 0.5 18.0266V32.2473C0.5 34.4037 2.24809 36.1518 4.40448 36.1518C6.56087 36.1518 8.30898 34.4037 8.30898 32.2473V18.0266Z" fill="#D8D8D8" stroke="black" stroke-miterlimit="10"/>
<path d="M8.30898 135.112C8.30898 132.955 6.56087 131.207 4.40448 131.207C2.24809 131.207 0.5 132.955 0.5 135.112V149.332C0.5 151.489 2.24809 153.237 4.40448 153.237C6.56087 153.237 8.30898 151.489 8.30898 149.332V135.112Z" fill="#D8D8D8" stroke="black" stroke-miterlimit="10"/>
<path d="M205.941 21.0947H185.72C183.178 21.0947 181.117 23.1556 181.117 25.6978V68.2355C181.117 70.7777 183.178 72.8386 185.72 72.8386H205.941C208.483 72.8386 210.544 70.7777 210.544 68.2355V25.6978C210.544 23.1556 208.483 21.0947 205.941 21.0947Z" fill="#7E7F7A" stroke="black" stroke-miterlimit="10"/>
<path d="M195.823 103.24C201.177 103.24 205.516 98.9002 205.516 93.5471C205.516 88.194 201.177 83.8545 195.823 83.8545C190.47 83.8545 186.131 88.194 186.131 93.5471C186.131 98.9002 190.47 103.24 195.823 103.24Z" fill="#7E7F7A" stroke="black" stroke-miterlimit="10"/>
<path d="M200.015 28.4678L185.507 49.9486H194.613L191.27 65.4668L206.152 43.9984L196.572 44.0857L200.015 28.4678Z" fill="#E8E803" stroke="black" stroke-miterlimit="10"/>
</svg>
