<svg width="118" height="226" viewBox="0 0 118 226" fill="none" xmlns="http://www.w3.org/2000/svg">
<path d="M113.858 72.4668H24.4593C23.1054 72.4668 22.0078 73.562 22.0078 74.9131V198.237C22.0078 199.589 23.1054 200.684 24.4593 200.684H113.858C115.212 200.684 116.309 199.589 116.309 198.237V74.9131C116.309 73.562 115.212 72.4668 113.858 72.4668Z" fill="#636262" stroke="black" stroke-miterlimit="10"/>
<path d="M98.2185 98.1104H46.7158C42.6637 98.1104 39.3789 101.41 39.3789 105.48V161.053C39.3789 165.123 42.6637 168.423 46.7158 168.423H98.2185C102.271 168.423 105.555 165.123 105.555 161.053V105.48C105.555 101.41 102.271 98.1104 98.2185 98.1104Z" fill="#303030" stroke="black" stroke-miterlimit="10"/>
<path d="M98.7012 172.374C100.166 165.662 88.1487 157.34 71.8602 153.785C55.5717 150.231 41.18 152.79 39.7154 159.502C38.2508 166.213 50.2679 174.536 66.5564 178.09C82.8449 181.645 97.2366 179.085 98.7012 172.374Z" fill="#63520B"/>
<path d="M21.4278 72.4668H1.07954C0.759465 72.4668 0.5 72.7318 0.5 73.0586V200.092C0.5 200.419 0.759465 200.684 1.07954 200.684H21.4278C21.7479 200.684 22.0074 200.419 22.0074 200.092V73.0586C22.0074 72.7318 21.7479 72.4668 21.4278 72.4668Z" fill="#303030" stroke="black" stroke-miterlimit="10"/>
<path d="M0.5 200.684V223.845H8.70421L14.5625 201.281L0.5 200.684Z" fill="#303030" stroke="black" stroke-miterlimit="10"/>
<path d="M22.0078 200.684V225.5H36.065L41.0335 201.272L22.0078 200.684Z" fill="#636262" stroke="black" stroke-miterlimit="10"/>
<path d="M74.9482 200.684L81.0309 224.673H92.3196V200.684H74.9482Z" fill="#303030" stroke="black" stroke-miterlimit="10"/>
<path d="M100.592 200.684L107.5 225.5H117.136L115.837 200.684H100.592Z" fill="#636262" stroke="black" stroke-miterlimit="10"/>
<path d="M98.2185 98.1104H46.7158C42.6637 98.1104 39.3789 101.41 39.3789 105.48V161.053C39.3789 165.123 42.6637 168.423 46.7158 168.423H98.2185C102.271 168.423 105.555 165.123 105.555 161.053V105.48C105.555 101.41 102.271 98.1104 98.2185 98.1104Z" stroke="black" stroke-miterlimit="10"/>
<path d="M80.739 60.8857H42.6875V71.6394H80.739V60.8857Z" fill="#ADADAD" stroke="black" stroke-miterlimit="10"/>
<path d="M78.2572 0.5H44.3418V60.886H78.2572V0.5Z" fill="#ADADAD" stroke="black" stroke-miterlimit="10"/>
<path d="M48.1224 159.879C47.1483 163.73 44.4832 166.404 42.1698 165.875C39.8564 165.345 38.7606 161.792 39.7347 157.941C40.7087 154.091 43.3739 151.416 45.6873 151.946C48.0006 152.476 49.0964 156.029 48.1224 159.879Z" fill="#63520B" stroke="black" stroke-miterlimit="10"/>
<path d="M53.2206 153.412C51.7634 152.51 49.8729 151.021 48.9671 148.655C47.4705 144.787 49.6891 141.363 51.8028 133.874C52.4723 131.509 53.3781 127.902 54.0477 123.315C57.2903 132.123 58.8394 134.044 59.6271 133.874C61.3863 133.482 58.4587 122.962 63.8281 113.553C66.0205 109.711 68.9612 107.175 71.2586 105.555C70.7335 108.116 70.3922 111.932 72.1382 115.618C73.4773 118.44 75.1052 119.225 76.7331 122.034C77.9802 124.191 79.3193 127.68 78.978 133.156C80.3827 132.228 82.0894 130.777 83.0871 128.542C84.3737 125.68 83.7697 123.132 84.3605 123.014C85.3714 122.805 87.6294 130.281 87.787 130.803C89.8875 137.808 90.9246 141.324 90.6095 144.617C89.9662 151.295 85.6077 156.104 82.9821 158.496" fill="#F46221"/>
<path d="M53.2206 153.412C51.7634 152.51 49.8729 151.021 48.9671 148.655C47.4705 144.787 49.6891 141.363 51.8028 133.874C52.4723 131.509 53.3781 127.902 54.0477 123.315C57.2903 132.123 58.8394 134.044 59.6271 133.874C61.3863 133.482 58.4587 122.962 63.8281 113.553C66.0205 109.711 68.9612 107.175 71.2586 105.555C70.7335 108.116 70.3922 111.932 72.1382 115.618C73.4773 118.44 75.1052 119.225 76.7331 122.034C77.9802 124.191 79.3193 127.68 78.978 133.156C80.3827 132.228 82.0894 130.777 83.0871 128.542C84.3737 125.68 83.7697 123.132 84.3605 123.014C85.3714 122.805 87.6294 130.281 87.787 130.803C89.8875 137.808 90.9246 141.324 90.6095 144.617C89.9662 151.295 85.6077 156.104 82.9821 158.496" stroke="black" stroke-miterlimit="10"/>
<path d="M62.6175 157.251C62.1133 156.81 61.3836 156.034 61.0519 154.871C60.5212 153.026 61.357 151.528 62.2194 148.172C62.4981 147.102 62.8696 145.471 63.1482 143.385C64.4882 147.37 65.1251 148.252 65.4435 148.172C66.1733 147.998 64.9659 143.224 67.1816 138.959C68.0838 137.22 69.2912 136.07 70.2465 135.335C70.0342 136.498 69.8882 138.223 70.6047 139.895C71.162 141.178 71.8253 141.526 72.502 142.796C73.0194 143.773 73.5634 145.35 73.4307 147.838C74.0145 147.423 74.7177 146.754 75.129 145.752C75.6597 144.454 75.4076 143.305 75.6597 143.251C76.071 143.157 76.9998 146.541 77.0661 146.781C77.9285 149.95 78.3664 151.542 78.2337 153.039C77.9683 156.088 76.1506 158.268 75.0892 159.324" fill="#F2EC22"/>
<path d="M62.6175 157.251C62.1133 156.81 61.3836 156.034 61.0519 154.871C60.5212 153.026 61.357 151.528 62.2194 148.172C62.4981 147.102 62.8696 145.471 63.1482 143.385C64.4882 147.37 65.1251 148.252 65.4435 148.172C66.1733 147.998 64.9659 143.224 67.1816 138.959C68.0838 137.22 69.2912 136.07 70.2465 135.335C70.0342 136.498 69.8882 138.223 70.6047 139.895C71.162 141.178 71.8253 141.526 72.502 142.796C73.0194 143.773 73.5634 145.35 73.4307 147.838C74.0145 147.423 74.7177 146.754 75.129 145.752C75.6597 144.454 75.4076 143.305 75.6597 143.251C76.071 143.157 76.9998 146.541 77.0661 146.781C77.9285 149.95 78.3664 151.542 78.2337 153.039C77.9683 156.088 76.1506 158.268 75.0892 159.324" stroke="black" stroke-miterlimit="10"/>
<path d="M69.1582 158.496H98.394C98.394 158.496 103.466 163.347 98.2014 168.423" fill="#63520B"/>
<path d="M69.1582 158.496H98.394C98.394 158.496 103.466 163.347 98.2014 168.423" stroke="black" stroke-miterlimit="10"/>
<path d="M45.9961 151.879L89.7901 164.294C89.7901 164.294 91.7591 166.98 89.7901 168.423" fill="#63520B"/>
<path d="M45.9961 151.879L89.7901 164.294C89.7901 164.294 91.7591 166.98 89.7901 168.423" stroke="black" stroke-miterlimit="10"/>
<path d="M103.901 168.423H42.6875V189.93H103.901V168.423Z" fill="#636262"/>
</svg>
