<?xml version="1.0" encoding="UTF-8"?>
<svg id="Calque_6" data-name="Calque 6" xmlns="http://www.w3.org/2000/svg" viewBox="0 0 720 1456">
  <defs>
    <style>
      .cls-1 {
        fill: #adadad;
      }

      .cls-1, .cls-2, .cls-3, .cls-4, .cls-5, .cls-6, .cls-7, .cls-8 {
        stroke: #000;
        stroke-miterlimit: 10;
      }

      .cls-2 {
        fill: none;
      }

      .cls-9, .cls-3 {
        fill: #63520b;
      }

      .cls-4 {
        fill: #303030;
      }

      .cls-5, .cls-10 {
        fill: #636262;
      }

      .cls-6 {
        fill: #87cccc;
      }

      .cls-7 {
        fill: #f2ec22;
      }

      .cls-8 {
        fill: #f46221;
      }
    </style>
  </defs>
  <rect class="cls-5" x="282.16" y="517.41" width="71.55" height="97.49" rx="1.86" ry="1.86"/>
  <rect class="cls-4" x="295.17" y="536.49" width="50.42" height="53.33" rx="5.59" ry="5.59"/>
  <ellipse class="cls-9" cx="317.73" cy="588.2" rx="9.44" ry="22.91" transform="translate(-324.69 773.24) rotate(-77.69)"/>
  <rect class="cls-4" x="265.46" y="517.41" width="16.7" height="97.49" rx=".45" ry=".45"/>
  <polygon class="cls-4" points="265.46 614.45 265.46 631.89 271.72 631.89 276.2 614.9 265.46 614.45"/>
  <polygon class="cls-5" points="282.16 614.45 282.16 633.42 292.59 633.42 296.28 614.9 282.16 614.45"/>
  <polygon class="cls-4" points="322.22 614.9 326.81 632.75 335.3 632.75 335.3 614.9 322.22 614.9"/>
  <polygon class="cls-5" points="341.34 614.9 346.71 633.42 354.2 633.42 353.19 614.9 341.34 614.9"/>
  <rect class="cls-2" x="295.17" y="536.49" width="50.42" height="53.33" rx="5.59" ry="5.59"/>
  <rect class="cls-1" x="297.85" y="508.2" width="28.4" height="8.61"/>
  <rect class="cls-1" x="298.97" y="462.81" width="25.38" height="45.39"/>
  <path class="cls-3" d="M301.8,583.57c-.72,2.98-2.69,5.05-4.4,4.64-1.71-.41-2.52-3.16-1.8-6.14.72-2.98,2.69-5.05,4.4-4.64s2.52,3.16,1.8,6.14Z"/>
  <path class="cls-8" d="M305.3,578.92c-1.11-.69-2.55-1.83-3.24-3.64-1.14-2.96.55-5.58,2.16-11.31.51-1.81,1.2-4.57,1.71-8.08,2.47,6.74,3.65,8.21,4.25,8.08,1.34-.3-.89-8.35,3.2-15.55,1.67-2.94,3.91-4.88,5.66-6.12-.4,1.96-.66,4.88.67,7.7,1.02,2.16,2.26,2.76,3.5,4.91.95,1.65,1.97,4.32,1.71,8.51,1.07-.71,2.37-1.82,3.13-3.53.98-2.19.52-4.14.97-4.23.77-.16,2.49,5.56,2.61,5.96,1.6,5.36,2.39,8.05,2.15,10.57-.49,5.11-3.81,8.79-5.81,10.62"/>
  <path class="cls-7" d="M312.7,581.66c-.38-.33-.93-.91-1.18-1.78-.4-1.38.23-2.5.88-5.01.21-.8.49-2.02.7-3.58,1.01,2.98,1.49,3.64,1.73,3.58.55-.13-.36-3.7,1.31-6.89.68-1.3,1.59-2.16,2.31-2.71-.16.87-.27,2.16.27,3.41.42.96.92,1.22,1.43,2.17.39.73.8,1.91.7,3.77.44-.31.97-.81,1.28-1.56.4-.97.21-1.83.4-1.87.31-.07,1.01,2.46,1.06,2.64.65,2.37.98,3.56.88,4.68-.2,2.28-1.57,3.91-2.37,4.7"/>
  <path class="cls-3" d="M317.38,582.31h22.77s3.95,3.67-.15,7.51"/>
  <polygon class="cls-1" points="380.13 468.85 447.33 468.85 427.31 511.11 359.67 511.11 380.13 468.85"/>
  <polygon class="cls-6" points="383.68 473.12 440.51 473.12 423.58 508.2 366.38 508.2 383.68 473.12"/>
  <rect class="cls-1" x="394.56" y="511.11" width="8.89" height="10.29"/>
  <rect class="cls-1" x="387.4" y="521.96" width="21.91" height="3.91"/>
  <rect class="cls-1" x="370.85" y="526.43" width="75.8" height="6.93"/>
  <line class="cls-2" x1="378.52" y1="483.59" x2="435.23" y2="484.05"/>
  <line class="cls-2" x1="396.23" y1="473.12" x2="379.69" y2="508.2"/>
  <path class="cls-2" d="M411.77,473.12l-16.66,35.09,16.66-35.09Z"/>
  <line class="cls-2" x1="425.97" y1="473.12" x2="409.99" y2="508.2"/>
  <line class="cls-2" x1="372.52" y1="496.59" x2="429.23" y2="497.05"/>
  <path class="cls-3" d="M300,577.44l33.14,9.29s1.49,2.01,0,3.09"/>
  <rect class="cls-10" x="297.36" y="590.1" width="46.73" height="16.43"/>
</svg>