<?xml version="1.0" encoding="UTF-8"?>
<svg id="Calque_6" data-name="Calque 6" xmlns="http://www.w3.org/2000/svg" viewBox="0 0 720 1456">
  <defs>
    <style>
      .cls-1 {
        fill: #c1bdbc;
      }

      .cls-1, .cls-2, .cls-3, .cls-4, .cls-5, .cls-6, .cls-7 {
        stroke: #000;
        stroke-miterlimit: 10;
      }

      .cls-2 {
        fill: #adadad;
      }

      .cls-3 {
        fill: none;
      }

      .cls-4 {
        fill: #303030;
      }

      .cls-5 {
        fill: #d8d8d8;
      }

      .cls-6 {
        fill: #87cccc;
      }

      .cls-7 {
        fill: #ff7a40;
      }
    </style>
  </defs>
  <rect class="cls-1" x="296.28" y="914.27" width="64.62" height="103.98" rx="3.13" ry="3.13"/>
  <rect class="cls-4" x="296.28" y="914.27" width="64.62" height="18.78" rx="3.13" ry="3.13"/>
  <rect class="cls-4" x="360.9" y="941.32" width="7.38" height="69.54" rx="3.69" ry="3.69"/>
  <rect class="cls-3" x="320.43" y="908.23" width="16.77" height="6.04"/>
  <rect class="cls-4" x="302.54" y="1018.24" width="54.11" height="7.83"/>
  <rect class="cls-6" x="309.25" y="919.19" width="20.35" height="8.72"/>
  <rect class="cls-4" x="222.04" y="876.48" width="25.71" height="8.72" rx="4.36" ry="4.36"/>
  <path class="cls-2" d="M333.4,870.1v33.77c0,2.39-1.96,4.36-4.36,4.36s-4.36-1.97-4.36-4.36v-29.41h-58.21v.45c0,2.83-2.32,5.14-5.15,5.14s-5.14-2.31-5.14-5.14v-1.12c0-1.38.54-2.62,1.43-3.54-.01-.05-.01-.1-.01-.15,0-1.2.49-2.29,1.28-3.08.79-.79,1.88-1.28,3.08-1.28h65.51c.27,0,.53.02.79.07.25-.05.51-.07.78-.07,1.2,0,2.29.49,3.08,1.28.79.79,1.28,1.88,1.28,3.08Z"/>
  <path class="cls-2" d="M268.33,883.02c0,.59-.24,1.14-.64,1.54-.4.39-.94.64-1.54.64h-9.73c-1.2,0-2.18-.99-2.18-2.18,0-.6.25-1.15.64-1.54.39-.39.94-.64,1.54-.64h9.73c1.2,0,2.18.98,2.18,2.18Z"/>
  <path class="cls-5" d="M285.77,913.71v74.23c0,.87-.04,1.72-.12,2.57-.39,4.38-1.79,8.49-3.97,12.08-1.94,3.23-4.51,6.05-7.53,8.27-4.73,3.51-10.58,5.59-16.89,5.59h-44.94c-4.47,0-8.7-1.04-12.48-2.89-.16-.08-.33-.16-.49-.25-8.48-4.37-14.53-12.87-15.42-22.8-.08-.85-.12-1.7-.12-2.57v-74.23c0-.83.04-1.65.12-2.46,1.24-14.55,13.54-26.05,28.39-26.05h44.94c14.85,0,27.15,11.5,28.39,26.05.08.81.12,1.63.12,2.46Z"/>
  <path class="cls-4" d="M296.28,1002.59v8.27h-22.13c3.02-2.22,5.59-5.04,7.53-8.27h14.6Z"/>
  <rect class="cls-3" x="183.81" y="983.36" width="101.96" height="7.16"/>
  <rect class="cls-5" x="183.81" y="911.25" width="101.96" height="6.6"/>
  <path class="cls-4" d="M195.55,1026.07l4.3-12.51s8.34,2.89,12.48,2.89l-5.93,9.62h-10.84Z"/>
  <path class="cls-4" d="M274.93,1026.07l-4.3-12.51s-8.34,2.89-12.48,2.89l5.93,9.62h10.84Z"/>
  <circle class="cls-7" cx="234.96" cy="950.77" r="22.08"/>
  <path class="cls-4" d="M234.96,935.51c10.55,10.74,12.13,22.74,7.55,27.5-3.55,3.69-11.6,3.89-15.09.34-4.46-4.53-2.67-16.34,7.55-27.84Z"/>
</svg>