<svg width="230" height="192" viewBox="0 0 230 192" fill="none" xmlns="http://www.w3.org/2000/svg">
<path d="M216.454 58.124H144.006C141.86 58.124 140.12 59.7883 140.12 61.8414V177.898C140.12 179.951 141.86 181.616 144.006 181.616H216.454C218.6 181.616 220.339 179.951 220.339 177.898V61.8414C220.339 59.7883 218.6 58.124 216.454 58.124Z" fill="#C1BDBC" stroke="black" stroke-miterlimit="10"/>
<path d="M216.454 58.124H144.006C141.86 58.124 140.12 59.7883 140.12 61.8414V76.7108C140.12 78.7638 141.86 80.4281 144.006 80.4281H216.454C218.6 80.4281 220.339 78.7638 220.339 76.7108V61.8414C220.339 59.7883 218.6 58.124 216.454 58.124Z" fill="#303030" stroke="black" stroke-miterlimit="10"/>
<path d="M229.5 94.6451C229.5 92.2247 227.45 90.2627 224.92 90.2627C222.39 90.2627 220.339 92.2247 220.339 94.6451V168.469C220.339 170.89 222.39 172.852 224.92 172.852C227.45 172.852 229.5 170.89 229.5 168.469V94.6451Z" fill="#303030" stroke="black" stroke-miterlimit="10"/>
<path d="M190.917 50.9639H170.099V58.1372H190.917V50.9639Z" stroke="black" stroke-miterlimit="10"/>
<path d="M215.064 181.616H147.892V190.916H215.064V181.616Z" fill="#303030" stroke="black" stroke-miterlimit="10"/>
<path d="M181.483 63.9678H156.221V74.324H181.483V63.9678Z" fill="#87CCCC" stroke="black" stroke-miterlimit="10"/>
<path d="M74.4638 13.2559H53.3725C50.3832 13.2559 47.96 15.5742 47.96 18.434C47.96 21.2938 50.3832 23.6121 53.3725 23.6121H74.4638C77.453 23.6121 79.8763 21.2938 79.8763 18.434C79.8763 15.5742 77.453 13.2559 74.4638 13.2559Z" fill="#303030" stroke="black" stroke-miterlimit="10"/>
<path d="M186.2 5.67813V45.7851C186.2 48.6236 183.766 50.9632 180.787 50.9632C177.808 50.9632 175.375 48.6236 175.375 45.7851V10.8563H103.113V11.3907C103.113 14.7518 100.233 17.4953 96.7196 17.4953C93.2065 17.4953 90.3389 14.7518 90.3389 11.3907V10.0606C90.3389 8.42161 91.0092 6.94895 92.1141 5.85631C92.1017 5.79693 92.1016 5.73752 92.1016 5.67813C92.1016 4.25295 92.7099 2.9584 93.6906 2.02015C94.6713 1.08191 96.0245 0.5 97.5141 0.5H178.838C179.173 0.5 179.496 0.523762 179.819 0.583144C180.129 0.523762 180.452 0.5 180.787 0.5C182.277 0.5 183.63 1.08191 184.611 2.02015C185.591 2.9584 186.2 4.25295 186.2 5.67813Z" fill="#ADADAD" stroke="black" stroke-miterlimit="10"/>
<path d="M105.423 21.0227C105.423 21.7234 105.125 22.3766 104.628 22.8517C104.132 23.3149 103.462 23.6117 102.717 23.6117H90.6379C89.1482 23.6117 87.9316 22.436 87.9316 21.0227C87.9316 20.3101 88.242 19.6569 88.7261 19.1937C89.2103 18.7305 89.8931 18.4336 90.6379 18.4336H102.717C104.206 18.4336 105.423 19.5975 105.423 21.0227Z" fill="#ADADAD" stroke="black" stroke-miterlimit="10"/>
<path d="M127.073 57.4722V145.631C127.073 146.665 127.023 147.674 126.924 148.684C126.44 153.886 124.702 158.767 121.995 163.031C119.587 166.867 116.397 170.216 112.648 172.852C106.776 177.021 99.5138 179.491 91.6806 179.491H35.8922C30.3432 179.491 25.0921 178.256 20.3996 176.059C20.201 175.964 19.9899 175.869 19.7913 175.762C9.26426 170.572 1.7538 160.477 0.648962 148.684C0.54965 147.674 0.5 146.665 0.5 145.631V57.4722C0.5 56.4864 0.54965 55.5126 0.648962 54.5506C2.18829 37.2703 17.4575 23.6123 35.8922 23.6123H91.6806C110.115 23.6123 125.384 37.2703 126.924 54.5506C127.023 55.5126 127.073 56.4864 127.073 57.4722Z" fill="#D8D8D8" stroke="black" stroke-miterlimit="10"/>
<path d="M140.12 163.029V172.851H112.647C116.396 170.214 119.587 166.865 121.995 163.029H140.12Z" fill="#303030" stroke="black" stroke-miterlimit="10"/>
<path d="M127.073 140.191H0.5V148.695H127.073V140.191Z" stroke="black" stroke-miterlimit="10"/>
<path d="M127.073 54.5498H0.5V62.3883H127.073V54.5498Z" fill="#D8D8D8" stroke="black" stroke-miterlimit="10"/>
<path d="M15.0742 190.916L20.4122 176.059C20.4122 176.059 30.7655 179.491 35.9049 179.491L28.5434 190.916H15.0866H15.0742Z" fill="#303030" stroke="black" stroke-miterlimit="10"/>
<path d="M113.628 190.916L108.29 176.059C108.29 176.059 97.9372 179.491 92.7979 179.491L100.159 190.916H113.616H113.628Z" fill="#303030" stroke="black" stroke-miterlimit="10"/>
<path d="M63.9979 127.709C79.1361 127.709 91.408 115.969 91.408 101.486C91.408 87.0032 79.1361 75.2627 63.9979 75.2627C48.8598 75.2627 36.5879 87.0032 36.5879 101.486C36.5879 115.969 48.8598 127.709 63.9979 127.709Z" fill="#FF7A40" stroke="black" stroke-miterlimit="10"/>
<path d="M63.9968 83.3613C77.0935 96.1167 79.0549 110.368 73.3693 116.022C68.9623 120.404 58.9691 120.642 54.6366 116.425C49.1 111.045 51.3221 97.0193 64.0092 83.3613H63.9968Z" fill="#303030" stroke="black" stroke-miterlimit="10"/>
</svg>
