<svg width="100" height="132" viewBox="0 0 100 132" fill="none" xmlns="http://www.w3.org/2000/svg">
<path d="M98.5 29.5734V117.427C98.5 124.617 92.6245 130.5 85.4434 130.5H14.5566C7.37549 130.5 1.5 124.617 1.5 117.427V29.5734C1.5 22.383 7.37549 16.5 14.5566 16.5H25.0455C25.0346 16.707 25.0237 16.9249 25.0237 17.1428V20.0734C25.0237 24.8888 28.9625 28.8435 33.7826 28.8435H68.1651C72.9851 28.8435 76.9239 24.8888 76.9239 20.0734V17.1428C76.9239 16.9249 76.913 16.707 76.9021 16.5H85.4434C92.6245 16.5 98.5 22.383 98.5 29.5734Z" fill="black" stroke="black" stroke-width="3" stroke-miterlimit="10"/>
<path d="M75.5 20.0664V22.93C75.5 27.6355 71.6295 31.5 66.8931 31.5H33.1069C28.3704 31.5 24.5 27.6355 24.5 22.93V20.0664C24.5 19.8534 24.5107 19.6405 24.5214 19.4382C24.8528 15.0202 28.5843 11.4964 33.1069 11.4964H36.6138C36.1006 10.5489 35.8119 9.46307 35.8119 8.32396C35.8119 6.45029 36.5818 4.74694 37.8327 3.51202C39.073 2.26645 40.7836 1.5 42.6654 1.5H57.9654C61.7396 1.5 64.8189 4.57662 64.8189 8.32396C64.8189 9.46307 64.5302 10.5489 64.0277 11.4964H66.8931C71.4157 11.4964 75.1472 15.0202 75.4786 19.4382C75.4786 19.6405 75.5 19.8534 75.5 20.0664Z" stroke="black" stroke-width="3" stroke-miterlimit="10"/>
</svg>
