<?xml version="1.0" encoding="UTF-8"?>
<svg id="Calque_6" data-name="Calque 6" xmlns="http://www.w3.org/2000/svg" viewBox="0 0 720 1456">
  <defs>
    <style>
      .cls-1 {
        fill: #adadad;
      }

      .cls-1, .cls-2, .cls-3, .cls-4, .cls-5, .cls-6, .cls-7, .cls-8 {
        stroke: #000;
        stroke-miterlimit: 10;
      }

      .cls-2 {
        fill: none;
      }

      .cls-3 {
        fill: #34b2ea;
      }

      .cls-4 {
        fill: #ed7c44;
      }

      .cls-5 {
        fill: #303030;
      }

      .cls-6 {
        fill: #d8d8d8;
      }

      .cls-7 {
        fill: #17c1fc;
      }

      .cls-8 {
        fill: #87cccc;
      }
    </style>
  </defs>
  <rect class="cls-6" x="321.59" y="691.45" width="82.29" height="107.93" rx="3.88" ry="3.88"/>
  <rect class="cls-1" x="349.02" y="683.4" width="26.09" height="8.05"/>
  <rect class="cls-1" x="352.44" y="663.87" width="19.08" height="19.08"/>
  <rect class="cls-1" x="331.72" y="799.37" width="61.27" height="8.35" rx=".82" ry=".82"/>
  <line class="cls-2" x1="321.59" y1="772.09" x2="403.87" y2="772.09"/>
  <rect class="cls-8" x="352.89" y="778.8" width="18.19" height="9.84"/>
  <circle class="cls-5" cx="342.46" cy="783.72" r="4.92"/>
  <circle class="cls-5" cx="381.51" cy="783.72" r="4.92"/>
  <path class="cls-3" d="M359.3,764.34c-.95-.26-8.68-2.49-11.18-9.54-1.53-4.32-.34-8.3,0-9.39,1.7-5.43,4.98-5.34,7.3-10.73,2.7-6.26.22-10.93,2.24-11.78,2.12-.89,6.89,3.39,8.97,8.55,2.29,5.67.8,11.1,1.76,11.28,1.03.19,2.06-6.15,3.58-6.11,2.16.05,7.05,13.17.75,21.91-2.54,3.53-6.03,5.13-7.9,5.81h-5.52Z"/>
  <path class="cls-7" d="M362.36,743.56c1.11.42-.41,3.41,1.42,7.36,1.76,3.8,4.64,4.2,4.92,6.71.16,1.46-.55,3.66-4.77,6.71h-4.62c-1.02-1.13-4-4.73-3.88-9.69.16-6.35,5.34-11.7,6.93-11.09Z"/>
  <rect class="cls-4" x="357.66" y="807.72" width="9.69" height="24.45"/>
  <path class="cls-2" d="M377.8,825.29c-2.04-.17-3.69-1.81-3.87-3.86.21,2.02,1.84,3.65,3.87,3.86Z"/>
  <path class="cls-1" d="M427.28,821.06c0,1.17-.48,2.23-1.25,3-.77.77-1.83,1.25-3,1.25h-44.79c-.15,0-.3-.01-.44-.02-2.03-.21-3.66-1.84-3.87-3.86-.01-.15-.02-.29-.02-.44v-8.95c0-2.38,1.95-4.32,4.33-4.32,1.19,0,2.27.48,3.05,1.27.78.78,1.27,1.86,1.27,3.05v4.77h40.47c2.34,0,4.25,1.91,4.25,4.25Z"/>
  <path class="cls-8" d="M310.78,786.37c0,2.62-1.18,4.98-3.05,6.59-1.61,1.39-3.72,2.24-6.04,2.24s-4.37-.82-5.96-2.17c-1.92-1.62-3.13-4-3.13-6.66s1.21-5.06,3.13-6.68c.01-.01.03-.02.04-.03,1.59-1.32,3.66-2.13,5.92-2.13s4.43.85,6.04,2.24c1.87,1.62,3.05,3.98,3.05,6.6Z"/>
  <path class="cls-1" d="M297.14,759.72h-6.78c-2.5,0-4.55-2.05-4.55-4.55,0-1.25.51-2.39,1.34-3.21.82-.82,1.96-1.33,3.21-1.33h10.96c.06,0,.13,0,.19,0,.06,0,.12,0,.18,0,1.25,0,2.39.51,3.21,1.33.83.82,1.34,1.96,1.34,3.21v15.51c0,.49-.08.96-.23,1.41h1.72v7.68c-1.61-1.39-3.72-2.24-6.04-2.24s-4.33.81-5.92,2.13c-.01.01-.03.02-.04.03v-7.6h1.64c-.15-.45-.23-.92-.23-1.41v-10.96Z"/>
  <path class="cls-1" d="M351.55,812.27v8.49c0,2.5-2.04,4.55-4.54,4.55-.56,0-1.09-.1-1.59-.3-14.13.1-28.26.2-42.39.3-.22,0-.44-.02-.65-.06-.23.04-.46.06-.69.06-2.5,0-4.55-2.05-4.55-4.55v-18.93c0-.55.1-1.07.29-1.56h-1.7v-7.24c1.59,1.35,3.68,2.17,5.96,2.17s4.43-.85,6.04-2.24v7.31h-1.77c.18.49.28,1.01.28,1.56v14.98h36.22v-4.54c0-2.5,2.05-4.55,4.55-4.55,1.25,0,2.38.51,3.21,1.34s1.33,1.96,1.33,3.21Z"/>
  <rect class="cls-1" x="330.79" y="815.32" width="5.59" height="13.08"/>
  <line class="cls-2" x1="301.69" y1="779.21" x2="301.69" y2="784.17"/>
  <line class="cls-2" x1="293.82" y1="785.99" x2="295.73" y2="785.99"/>
  <line class="cls-2" x1="307.87" y1="785.99" x2="309.78" y2="785.99"/>
  <ellipse class="cls-2" cx="301.67" cy="786.05" rx="1.81" ry="1.7"/>
</svg>