<svg width="177" height="211" viewBox="0 0 177 211" fill="none" xmlns="http://www.w3.org/2000/svg">
<path d="M142.561 34.8115H49.8397C47.1738 34.8115 45.0127 36.9727 45.0127 39.6386V164.258C45.0127 166.924 47.1738 169.086 49.8397 169.086H142.561C145.227 169.086 147.388 166.924 147.388 164.258V39.6386C147.388 36.9727 145.227 34.8115 142.561 34.8115Z" fill="#D8D8D8" stroke="black" stroke-miterlimit="10"/>
<path d="M111.597 24.7969H79.1387V34.8117H111.597V24.7969Z" stroke="black" stroke-miterlimit="10"/>
<path d="M107.143 0.5H83.4062V24.2371H107.143V0.5Z" stroke="black" stroke-miterlimit="10"/>
<path d="M132.833 169.073H58.6481C58.0847 169.073 57.6279 169.53 57.6279 170.093V178.441C57.6279 179.005 58.0847 179.461 58.6481 179.461H132.833C133.396 179.461 133.853 179.005 133.853 178.441V170.093C133.853 169.53 133.396 169.073 132.833 169.073Z" fill="#ADADAD" stroke="black" stroke-miterlimit="10"/>
<path d="M45.0127 135.136H147.388" stroke="black" stroke-miterlimit="10"/>
<path d="M106.596 143.483H83.9658V155.725H106.596V143.483Z" fill="#87CCCC" stroke="black" stroke-miterlimit="10"/>
<path d="M70.9783 155.725C74.3588 155.725 77.0992 152.985 77.0992 149.604C77.0992 146.224 74.3588 143.483 70.9783 143.483C67.5978 143.483 64.8574 146.224 64.8574 149.604C64.8574 152.985 67.5978 155.725 70.9783 155.725Z" fill="#303030" stroke="black" stroke-miterlimit="10"/>
<path d="M119.571 155.725C122.952 155.725 125.692 152.985 125.692 149.604C125.692 146.224 122.952 143.483 119.571 143.483C116.191 143.483 113.45 146.224 113.45 149.604C113.45 152.985 116.191 155.725 119.571 155.725Z" fill="#303030" stroke="black" stroke-miterlimit="10"/>
<path d="M91.9409 125.492C90.759 125.169 81.1422 122.395 78.032 113.624C76.1286 108.249 77.609 103.298 78.032 101.942C80.147 95.1865 84.2276 95.2985 87.1138 88.5929C90.4729 80.8049 87.3876 74.995 89.9006 73.9376C92.5381 72.8303 98.4723 78.155 101.06 84.5745C103.909 91.6284 102.055 98.3838 103.25 98.6078C104.531 98.8441 105.812 90.9567 107.703 91.0064C110.391 91.0686 116.474 107.391 108.636 118.264C105.477 122.656 101.135 124.646 98.8082 125.492H91.9409Z" fill="#34B2EA" stroke="black" stroke-miterlimit="10"/>
<path d="M95.7353 99.6411C97.1162 100.164 95.2252 103.883 97.5019 108.798C99.6914 113.525 103.274 114.023 103.623 117.145C103.822 118.962 102.938 121.699 97.6885 125.493H91.9408C90.6718 124.087 86.9645 119.609 87.1138 113.438C87.3128 105.538 93.7572 98.8822 95.7353 99.6411Z" fill="#17C1FC" stroke="black" stroke-miterlimit="10"/>
<path d="M101.955 179.462H89.8994V209.88H101.955V179.462Z" fill="#ED7C44" stroke="black" stroke-miterlimit="10"/>
<path d="M114.944 201.321C112.406 201.109 110.353 199.069 110.129 196.519C110.39 199.032 112.418 201.059 114.944 201.321Z" stroke="black" stroke-miterlimit="10"/>
<path d="M176.5 196.058C176.5 197.514 175.903 198.832 174.945 199.79C173.987 200.748 172.668 201.345 171.213 201.345H115.49C115.304 201.345 115.117 201.333 114.943 201.32C112.418 201.059 110.39 199.031 110.128 196.518C110.116 196.332 110.104 196.158 110.104 195.971V184.836C110.104 181.875 112.529 179.462 115.49 179.462C116.971 179.462 118.314 180.059 119.285 181.042C120.255 182.012 120.865 183.356 120.865 184.836V190.771H171.213C174.124 190.771 176.5 193.147 176.5 196.058Z" fill="#ADADAD" stroke="black" stroke-miterlimit="10"/>
<path d="M31.5647 152.9C31.5647 156.16 30.0967 159.096 27.7703 161.099C25.7673 162.828 23.1423 163.885 20.256 163.885C17.3697 163.885 14.8193 162.865 12.8413 161.186C10.4526 159.17 8.94727 156.209 8.94727 152.9C8.94727 149.591 10.4526 146.605 12.8413 144.59C12.8537 144.577 12.8786 144.565 12.891 144.552C14.8691 142.91 17.4444 141.902 20.256 141.902C23.0676 141.902 25.7673 142.96 27.7703 144.689C30.0967 146.704 31.5647 149.641 31.5647 152.9Z" fill="#87CCCC" stroke="black" stroke-miterlimit="10"/>
<path d="M14.5955 119.746H6.16058C3.05037 119.746 0.5 117.196 0.5 114.086C0.5 112.531 1.13449 111.112 2.16708 110.092C3.18723 109.072 4.60548 108.438 6.16058 108.438H19.7957C19.8704 108.438 19.9575 108.438 20.0321 108.438C20.1068 108.438 20.1814 108.438 20.256 108.438C21.8111 108.438 23.2294 109.072 24.2496 110.092C25.2821 111.112 25.9166 112.531 25.9166 114.086V133.381C25.9166 133.991 25.8171 134.576 25.6305 135.135H27.7703V144.69C25.7673 142.961 23.1423 141.903 20.256 141.903C17.3698 141.903 14.8692 142.911 12.8911 144.553C12.8786 144.566 12.8538 144.578 12.8413 144.591V135.135H14.8816C14.695 134.576 14.5955 133.991 14.5955 133.381V119.746Z" fill="#ADADAD" stroke="black" stroke-miterlimit="10"/>
<path d="M82.2856 185.123V195.685C82.2856 198.795 79.7476 201.346 76.6374 201.346C75.9407 201.346 75.2814 201.221 74.6593 200.973C57.0804 201.097 39.5015 201.221 21.9226 201.346C21.6489 201.346 21.3752 201.321 21.114 201.271C20.8278 201.321 20.5417 201.346 20.2555 201.346C17.1453 201.346 14.595 198.795 14.595 195.685V172.135C14.595 171.45 14.7194 170.803 14.9558 170.194H12.8408V161.187C14.8189 162.866 17.419 163.886 20.2555 163.886C23.0921 163.886 25.7668 162.829 27.7698 161.1V170.194H25.5678C25.7917 170.803 25.9161 171.45 25.9161 172.135V190.771H70.9768V185.123C70.9768 182.013 73.5272 179.462 76.6374 179.462C78.1925 179.462 79.5983 180.097 80.6309 181.129C81.6635 182.162 82.2856 183.568 82.2856 185.123Z" fill="#ADADAD" stroke="black" stroke-miterlimit="10"/>
<path d="M63.4261 188.916H56.4717V205.189H63.4261V188.916Z" fill="#ADADAD" stroke="black" stroke-miterlimit="10"/>
<path d="M20.2559 143.993V150.164" stroke="black" stroke-miterlimit="10"/>
<path d="M10.4766 152.428H12.8403" stroke="black" stroke-miterlimit="10"/>
<path d="M27.957 152.428H30.3208" stroke="black" stroke-miterlimit="10"/>
<path d="M20.2313 154.618C21.4749 154.618 22.4831 153.671 22.4831 152.503C22.4831 151.335 21.4749 150.388 20.2313 150.388C18.9877 150.388 17.9795 151.335 17.9795 152.503C17.9795 153.671 18.9877 154.618 20.2313 154.618Z" stroke="black" stroke-miterlimit="10"/>
</svg>
