<svg width="378" height="242" viewBox="0 0 378 242" fill="none" xmlns="http://www.w3.org/2000/svg">
<g clip-path="url(#clip0_136_21)">
<path d="M376.57 142.06C376.57 189.32 338.27 227.61 291.02 227.61C275.95 227.61 261.79 223.71 249.49 216.87C238.43 230.89 220.7 239.97 200.7 239.97C180.7 239.97 163.81 231.3 152.71 217.83C143.48 224.23 132.27 227.99 120.18 227.99C104.02 227.99 89.42 221.27 79.03 210.49C72.84 212.78 66.15 214.04 59.16 214.04C27.58 214.04 2 188.44 2 156.86C2 130.5 19.82 108.32 44.1 101.73C47.81 73.76 71.76 52.19 100.76 52.19C106.22 52.19 111.48 52.95 116.48 54.39C127.22 24.05 158.37 2.09998 195.09 2.09998C231.81 2.09998 265.41 25.81 274.89 58.05C280.12 57.04 285.51 56.52 291.03 56.52C338.29 56.52 376.58 94.84 376.58 142.07L376.57 142.06Z" fill="white" stroke="black" stroke-width="3" stroke-miterlimit="10"/>
<path d="M75.2522 159.442V129.167L80.8104 123.609H102.334V129.877H82.2295V158.732H102.925V165H80.8104L75.2522 159.442ZM107.878 159.442V129.167L113.436 123.609H136.023L141.582 129.167V159.442L136.023 165H113.436L107.878 159.442ZM114.855 129.64V158.969H134.604V129.64H114.855Z" fill="black"/>
<path d="M164.526 177.453V181.05H145.48V168.353L160.434 166.589V159.959H145.762V156.361H161.21L164.526 159.676V169.552L149.571 171.316V177.453H164.526Z" fill="black"/>
<path d="M171.854 165.06V126.511H178.242V159.553H193.937V149.64H199.829V165.06H171.854ZM204.498 165.06V126.511H210.886V159.553H226.581V149.64H232.474V165.06H204.498ZM237.142 165.06V126.511H263.796V132.018H243.53V142.591H261.042V147.988H243.53V159.553H264.347V165.06H237.142ZM269.032 159.883V131.688L274.208 126.511H294.254V132.348H275.53V159.223H294.805V165.06H274.208L269.032 159.883ZM308.724 165.06V132.128H297.49V126.511H326.346V132.128H315.112V165.06H308.724Z" fill="black"/>
</g>
<defs>
<clipPath id="clip0_136_21">
<rect width="378" height="242" fill="white"/>
</clipPath>
</defs>
</svg>
