<?xml version="1.0" encoding="UTF-8"?>
<svg id="Logo" xmlns="http://www.w3.org/2000/svg" viewBox="0 0 558.08 304.66">
  <defs>
    <style>
      .cls-1 {
        fill: #fff;
        stroke: #000;
        stroke-miterlimit: 10;
        stroke-width: 3px;
      }

      .cls-2 {
        font-size: 55.07px;
      }

      .cls-2, .cls-3, .cls-4 {
        font-family: Tektur-Medium, Tektur;
        font-variation-settings: 'wdth' 100, 'wght' 500;
        font-weight: 500;
      }

      .cls-3 {
        font-size: 59.13px;
      }

      .cls-4 {
        font-size: 35.27px;
      }
    </style>
  </defs>
  <path class="cls-1" d="M455.57,156.06c0,47.26-38.3,85.55-85.55,85.55-15.07,0-29.23-3.9-41.53-10.74-11.06,14.02-28.79,23.1-48.79,23.1s-36.89-8.67-47.99-22.14c-9.23,6.4-20.44,10.16-32.53,10.16-16.16,0-30.76-6.72-41.15-17.5-6.19,2.29-12.88,3.55-19.87,3.55-31.58,0-57.16-25.6-57.16-57.18,0-26.36,17.82-48.54,42.1-55.13,3.71-27.97,27.66-49.54,56.66-49.54,5.46,0,10.72.76,15.72,2.2,10.74-30.34,41.89-52.29,78.61-52.29s70.32,23.71,79.8,55.95c5.23-1.01,10.62-1.53,16.14-1.53,47.26,0,85.55,38.32,85.55,85.55Z"/>
  <g>
    <g>
      <text class="cls-3" transform="translate(131.14 182.18)"><tspan x="0" y="0">CO</tspan></text>
      <text class="cls-4" transform="translate(202.68 198.37)"><tspan x="0" y="0">2</tspan></text>
    </g>
    <text class="cls-2" transform="translate(227.91 182.18)"><tspan x="0" y="0">LLECTE</tspan></text>
  </g>
</svg>