<svg width="203" height="192" viewBox="0 0 203 192" fill="none" xmlns="http://www.w3.org/2000/svg">
<g clip-path="url(#clip0_133_2)">
<path d="M154.98 115.29C160.07 113.48 167.35 110.21 174.81 104.27C181.14 99.2301 185.5 93.9401 188.35 89.8801C198.81 85.0101 203.78 81.5901 203.26 79.6001C202.92 78.2901 200.17 77.6001 195.04 77.5401C197.75 75.2901 203.94 69.9801 203.09 68.6301C202.18 67.1801 193.58 71.0201 190.58 72.4001C194.72 64.0901 196.26 59.5801 195.21 58.8601C194.01 58.0401 189.44 62.1501 181.5 71.2001C178.85 65.1001 176.91 62.1901 175.67 62.4601C174.14 62.8001 173.68 67.9901 174.3 78.0501C171.56 80.0801 168.76 82.2401 165.9 84.5601C162.49 87.3301 159.3 90.0901 156.33 92.7801" fill="#65983C"/>
<path d="M154.98 115.29C160.07 113.48 167.35 110.21 174.81 104.27C181.14 99.2301 185.5 93.9401 188.35 89.8801C198.81 85.0101 203.78 81.5901 203.26 79.6001C202.92 78.2901 200.17 77.6001 195.04 77.5401C197.75 75.2901 203.94 69.9801 203.09 68.6301C202.18 67.1801 193.58 71.0201 190.58 72.4001C194.72 64.0901 196.26 59.5801 195.21 58.8601C194.01 58.0401 189.44 62.1501 181.5 71.2001C178.85 65.1001 176.91 62.1901 175.67 62.4601C174.14 62.8001 173.68 67.9901 174.3 78.0501C171.56 80.0801 168.76 82.2401 165.9 84.5601C162.49 87.3301 159.3 90.0901 156.33 92.7801" stroke="black" stroke-miterlimit="10"/>
<path d="M140.5 144.44C137.12 148.05 121.86 163.34 98.52 162.72C77.46 162.17 63.74 149.02 60.08 145.23C53.8 138.7 49.16 130.66 46.13 121.9C42.78 121.29 38.41 120.09 33.75 117.61C24.36 112.61 19.22 105.27 16.91 101.42C5.31999 96.9401 -0.290025 93.95 0.0799749 92.43C0.359975 91.29 4.05 90.99 11.14 91.53C2.67 84.06 1.97999 82.1001 2.37999 81.5101C2.76999 80.9301 4.71999 80.8701 13.44 85.1001C9.51999 78.8801 7.98 75.41 8.82 74.69C9.86 73.79 14.61 77.1701 23.07 84.8501C24.59 78.6301 25.96 75.55 27.19 75.61C28.64 75.68 29.88 80.17 30.91 89.08C32.74 91.24 35.07 93.65 37.99 96.03C39.93 97.61 41.81 98.9301 43.56 100.01C42.29 86.2901 44.44 76.1601 46.48 69.6701C53.28 48.0201 67.96 40.3 69.35 19.81C69.9 11.67 68.71 4.84004 67.56 0.290039C78.73 2.31004 97.84 7.49005 116.13 22.1301C119.62 24.9301 128.84 32.6601 137.56 45.3501C143.95 54.6401 155.47 71.37 156.23 95.12C156.53 104.09 157.24 126.61 140.51 144.45L140.5 144.44Z" fill="#65983C" stroke="black" stroke-miterlimit="10"/>
<path d="M43.56 99.9902C44.77 100.98 46.23 102.02 47.93 103.03C50.34 104.45 52.61 105.41 54.53 106.07" stroke="black" stroke-miterlimit="10"/>
<path d="M46.13 121.88C49.13 122.44 52.13 122.99 55.12 123.55" stroke="black" stroke-miterlimit="10"/>
<path d="M125.97 94.2201C134.298 94.2201 141.05 87.2447 141.05 78.6401C141.05 70.0355 134.298 63.0601 125.97 63.0601C117.642 63.0601 110.89 70.0355 110.89 78.6401C110.89 87.2447 117.642 94.2201 125.97 94.2201Z" fill="white" stroke="white" stroke-miterlimit="10"/>
<path d="M79.46 99.2298C88.0646 99.2298 95.04 92.2544 95.04 83.6498C95.04 75.0452 88.0646 68.0698 79.46 68.0698C70.8554 68.0698 63.88 75.0452 63.88 83.6498C63.88 92.2544 70.8554 99.2298 79.46 99.2298Z" fill="white" stroke="white" stroke-miterlimit="10"/>
<path d="M79.17 95.9799C85.3998 95.9799 90.45 90.9297 90.45 84.6999C90.45 78.4701 85.3998 73.4199 79.17 73.4199C72.9402 73.4199 67.89 78.4701 67.89 84.6999C67.89 90.9297 72.9402 95.9799 79.17 95.9799Z" fill="black" stroke="black" stroke-miterlimit="10"/>
<path d="M125.01 89.2001C130.842 89.2001 135.57 84.4722 135.57 78.6401C135.57 72.808 130.842 68.0801 125.01 68.0801C119.178 68.0801 114.45 72.808 114.45 78.6401C114.45 84.4722 119.178 89.2001 125.01 89.2001Z" fill="black" stroke="black" stroke-miterlimit="10"/>
<path d="M83.26 83.3002C85.0218 83.3002 86.45 81.8227 86.45 80.0002C86.45 78.1776 85.0218 76.7002 83.26 76.7002C81.4982 76.7002 80.07 78.1776 80.07 80.0002C80.07 81.8227 81.4982 83.3002 83.26 83.3002Z" fill="white" stroke="white" stroke-miterlimit="10"/>
<path d="M129.65 77.4901C131.412 77.4901 132.84 76.0127 132.84 74.1901C132.84 72.3676 131.412 70.8901 129.65 70.8901C127.888 70.8901 126.46 72.3676 126.46 74.1901C126.46 76.0127 127.888 77.4901 129.65 77.4901Z" fill="white" stroke="white" stroke-miterlimit="10"/>
<path d="M70.8 57.15C67.94 58.66 66.47 62.29 67.2 63.06C67.75 63.64 69.29 62.32 73.88 60.75C78.27 59.26 80.03 59.38 80.06 58.76C80.13 57.66 74.74 55.07 70.79 57.15H70.8Z" fill="black" stroke="black" stroke-miterlimit="10"/>
<path d="M123.96 49.58C120.73 49.5 117.67 51.9501 117.94 52.9801C118.14 53.7501 120.13 53.3501 124.9 54.2301C129.46 55.0701 130.93 56.04 131.27 55.52C131.87 54.6 128.43 49.7 123.97 49.59L123.96 49.58Z" fill="black" stroke="black" stroke-miterlimit="10"/>
<path d="M73.14 155.39C73.46 162.97 73.78 170.55 74.1 178.12C67.44 182.56 66.08 185.2 66.52 186.86C67.71 191.32 83.3 193.61 88.75 187.37C90.37 185.51 90.2 183.92 92 174.39C92.96 169.3 93.87 165.16 94.49 162.44C91.47 162.11 87.73 161.45 83.58 160.09C79.31 158.69 75.81 156.95 73.14 155.38V155.39Z" fill="#65983C" stroke="black" stroke-miterlimit="10"/>
<path d="M109.57 161.81C109.57 164.81 109.45 169.22 108.8 174.53C108.01 180.98 107.27 182.07 108.03 184.04C110.91 191.56 128.85 194.53 132.92 188.92C134.36 186.94 134.46 183.34 132.92 181.21C131.29 178.95 128.79 179.69 127.57 177.74C126.04 175.29 128.47 171.68 130.14 167.72C131.64 164.16 133.16 158.8 132.84 151.28C129.81 153.6 125.62 156.32 120.26 158.56C116.29 160.22 112.64 161.21 109.58 161.82L109.57 161.81Z" fill="#65983C" stroke="black" stroke-miterlimit="10"/>
<path d="M75.64 38.3901C83.69 44.6201 91.75 50.8401 99.8 57.0701C101.46 63.4201 103.11 69.7601 104.77 76.1101V55.0701C107.63 48.0801 110.48 41.1001 113.34 34.1101C109.86 39.5901 106.37 45.0801 102.89 50.5601L81.81 10.1201L97.57 50.3901L75.64 38.4001V38.3901Z" fill="#95BE45" stroke="#8FB442" stroke-width="0.25" stroke-miterlimit="10"/>
<path d="M62.74 115.29C76.14 124.69 89.55 134.1 102.95 143.5C103.91 134.55 104.87 125.6 105.82 116.66L107.18 142.53L137.35 118.03C132.49 123.5 127.03 129.21 120.92 134.99C116.24 139.42 111.64 143.47 107.18 147.16C106.23 151.31 105.28 155.45 104.32 159.6C103.06 159.71 101.81 159.82 100.55 159.93C101.34 155.67 102.12 151.42 102.91 147.16C94.53 142.36 85.08 136.01 75.47 127.63C70.69 123.46 66.47 119.3 62.74 115.29Z" fill="#95BE45" stroke="#8FB442" stroke-width="0.25" stroke-miterlimit="10"/>
<path d="M92.46 103.85C91.88 105.98 93.48 109.01 96.21 111.27C98.22 112.93 100.83 114.18 103.64 114.36C112.68 114.94 118.66 104.14 116.83 100.5C114.33 95.5202 94.11 97.8002 92.46 103.85Z" fill="black" stroke="black" stroke-width="2" stroke-miterlimit="10"/>
<path d="M110.19 111.31C109.58 109.84 108.01 106.71 104.47 104.6C100.39 102.16 94.38 101.48 93.36 103.21C92.13 105.3 97.45 112.24 104.1 112.69C106.79 112.87 108.99 111.94 110.18 111.31H110.19Z" fill="#D43616" stroke="black" stroke-width="2" stroke-miterlimit="10"/>
</g>
<defs>
<clipPath id="clip0_133_2">
<rect width="203" height="192" fill="white"/>
</clipPath>
</defs>
</svg>
