<?xml version="1.0" encoding="UTF-8"?>
<svg id="Calque_3" data-name="Calque 3" xmlns="http://www.w3.org/2000/svg" viewBox="0 0 1024 559">
  <defs>
    <style>
      .cls-1 {
        fill: none;
      }

      .cls-1, .cls-2, .cls-3, .cls-4, .cls-5, .cls-6, .cls-7 {
        stroke-miterlimit: 10;
      }

      .cls-1, .cls-2, .cls-4, .cls-5, .cls-6 {
        stroke: #000;
      }

      .cls-2 {
        fill: #65983c;
      }

      .cls-3 {
        fill: #fff;
        stroke: #fff;
      }

      .cls-4 {
        fill: #d43616;
      }

      .cls-4, .cls-5 {
        stroke-width: 2px;
      }

      .cls-7 {
        fill: #95be45;
        stroke: #8fb442;
        stroke-width: .25px;
      }
    </style>
  </defs>
  <path class="cls-2" d="M515.98,322.29c5.09-1.81,12.37-5.08,19.83-11.02,6.33-5.04,10.69-10.33,13.54-14.39,10.46-4.87,15.43-8.29,14.91-10.28-.34-1.31-3.09-2-8.22-2.06,2.71-2.25,8.9-7.56,8.05-8.91-.91-1.45-9.51,2.39-12.51,3.77,4.14-8.31,5.68-12.82,4.63-13.54-1.2-.82-5.77,3.29-13.71,12.34-2.65-6.1-4.59-9.01-5.83-8.74-1.53.34-1.99,5.53-1.37,15.59-2.74,2.03-5.54,4.19-8.4,6.51-3.41,2.77-6.6,5.53-9.57,8.22"/>
  <path class="cls-2" d="M501.5,351.44c-3.38,3.61-18.64,18.9-41.98,18.28-21.06-.55-34.78-13.7-38.44-17.49-6.28-6.53-10.92-14.57-13.95-23.33-3.35-.61-7.72-1.81-12.38-4.29-9.39-5-14.53-12.34-16.84-16.19-11.59-4.48-17.2-7.47-16.83-8.99.28-1.14,3.97-1.44,11.06-.9-8.47-7.47-9.16-9.43-8.76-10.02.39-.58,2.34-.64,11.06,3.59-3.92-6.22-5.46-9.69-4.62-10.41,1.04-.9,5.79,2.48,14.25,10.16,1.52-6.22,2.89-9.3,4.12-9.24,1.45.07,2.69,4.56,3.72,13.47,1.83,2.16,4.16,4.57,7.08,6.95,1.94,1.58,3.82,2.9,5.57,3.98-1.27-13.72.88-23.85,2.92-30.34,6.8-21.65,21.48-29.37,22.87-49.86.55-8.14-.64-14.97-1.79-19.52,11.17,2.02,30.28,7.2,48.57,21.84,3.49,2.8,12.71,10.53,21.43,23.22,6.39,9.29,17.91,26.02,18.67,49.77.3,8.97,1.01,31.49-15.72,49.33Z"/>
  <path class="cls-1" d="M404.56,306.99c1.21.99,2.67,2.03,4.37,3.04,2.41,1.42,4.68,2.38,6.6,3.04"/>
  <path class="cls-1" d="M407.13,328.88c3,.56,6,1.11,8.99,1.67"/>
  <ellipse class="cls-3" cx="486.97" cy="285.64" rx="15.08" ry="15.58"/>
  <circle class="cls-3" cx="440.46" cy="290.65" r="15.58"/>
  <circle class="cls-6" cx="440.17" cy="291.7" r="11.28"/>
  <circle class="cls-6" cx="486.01" cy="285.64" r="10.56"/>
  <ellipse class="cls-3" cx="444.26" cy="287" rx="3.19" ry="3.3"/>
  <ellipse class="cls-3" cx="490.65" cy="281.19" rx="3.19" ry="3.3"/>
  <path class="cls-6" d="M431.8,264.15c-2.86,1.51-4.33,5.14-3.6,5.91.55.58,2.09-.74,6.68-2.31,4.39-1.49,6.15-1.37,6.18-1.99.07-1.1-5.32-3.69-9.27-1.61Z"/>
  <path class="cls-6" d="M484.96,256.58c-3.23-.08-6.29,2.37-6.02,3.4.2.77,2.19.37,6.96,1.25,4.56.84,6.03,1.81,6.37,1.29.6-.92-2.84-5.82-7.3-5.93Z"/>
  <path class="cls-2" d="M434.14,362.39c.32,7.58.64,15.16.96,22.73-6.66,4.44-8.02,7.08-7.58,8.74,1.19,4.46,16.78,6.75,22.23.51,1.62-1.86,1.45-3.45,3.25-12.98.96-5.09,1.87-9.23,2.49-11.95-3.02-.33-6.76-.99-10.91-2.35-4.27-1.4-7.77-3.14-10.44-4.71Z"/>
  <path class="cls-2" d="M470.57,368.81c0,3-.12,7.41-.77,12.72-.79,6.45-1.53,7.54-.77,9.51,2.88,7.52,20.82,10.49,24.89,4.88,1.44-1.98,1.54-5.58,0-7.71-1.63-2.26-4.13-1.52-5.35-3.47-1.53-2.45.9-6.06,2.57-10.02,1.5-3.56,3.02-8.92,2.7-16.44-3.03,2.32-7.22,5.04-12.58,7.28-3.97,1.66-7.62,2.65-10.68,3.26Z"/>
  <path class="cls-7" d="M436.64,245.39c8.05,6.23,16.11,12.45,24.16,18.68,1.66,6.35,3.31,12.69,4.97,19.04v-21.04c2.86-6.99,5.71-13.97,8.57-20.96-3.48,5.48-6.97,10.97-10.45,16.45l-21.08-40.44,15.76,40.27-21.93-11.99Z"/>
  <path class="cls-7" d="M423.74,322.29c13.4,9.4,26.81,18.81,40.21,28.21.96-8.95,1.92-17.9,2.87-26.84l1.36,25.87,30.17-24.5c-4.86,5.47-10.32,11.18-16.43,16.96-4.68,4.43-9.28,8.48-13.74,12.17-.95,4.15-1.9,8.29-2.86,12.44-1.26.11-2.51.22-3.77.33.79-4.26,1.57-8.51,2.36-12.77-8.38-4.8-17.83-11.15-27.44-19.53-4.78-4.17-9-8.33-12.73-12.34Z"/>
  <path class="cls-5" d="M453.46,310.85c-.58,2.13,1.02,5.16,3.75,7.42,2.01,1.66,4.62,2.91,7.43,3.09,9.04.58,15.02-10.22,13.19-13.86-2.5-4.98-22.72-2.7-24.37,3.35Z"/>
  <path class="cls-4" d="M471.19,318.31c-.61-1.47-2.18-4.6-5.72-6.71-4.08-2.44-10.09-3.12-11.11-1.39-1.23,2.09,4.09,9.03,10.74,9.48,2.69.18,4.89-.75,6.08-1.38Z"/>
</svg>