<svg width="428" height="384" viewBox="0 0 428 384" fill="none" xmlns="http://www.w3.org/2000/svg">
<g clip-path="url(#clip0_69_124)">
<path d="M149.803 306.413L119.87 347.898C102.317 340.673 96.4516 341.322 94.6502 343.689C89.3716 350.662 110.654 383.896 130.888 383.079C141.508 382.64 145.174 373.09 166.603 356.295C179.15 346.474 190.503 339.856 198.127 335.815C182.019 326.014 165.911 316.214 149.803 306.413Z" fill="#65983C" stroke="black" stroke-miterlimit="10"/>
<path d="M245.887 328.423C253.909 334.516 266.268 344.485 280.03 358.348C296.473 374.912 300.286 382.284 309.251 383.017C328.794 384.608 351.103 352.945 345.698 344.17C342.829 339.501 331.161 341.26 319.955 344.17C317.818 338.705 314.802 332.38 310.508 325.784C302.359 313.261 292.912 304.822 285.811 299.523C272.51 309.156 259.188 318.769 245.887 328.402V328.423Z" fill="#65983C" stroke="black" stroke-miterlimit="10"/>
<path d="M132.963 82.5291C125.003 114.716 109.837 195.906 149.762 278.834C161.848 303.921 176.469 323.983 190.21 339.501C175.862 336.171 165.263 331.019 158.371 326.999C150.223 322.245 144.421 317.47 134.953 309.638C126.888 302.958 123.683 299.545 121.903 297.534C117.211 292.236 114.131 287.503 110.591 282.059C106.863 276.321 104.035 271.357 102.108 267.776C99.741 261.976 100.642 259.735 98.2118 256.761C94.1063 251.756 87.7803 253.62 79.234 251.652C69.8917 249.495 64.2152 244.176 53.26 233.893C41.027 222.417 43.5197 216.805 33.4652 211.025C28.7732 208.324 27.3069 208.868 15.8699 203.403C6.75803 199.047 0.494948 196.052 0.892937 194.084C1.18619 192.618 5.31271 191.194 24.0601 192.199L5.71071 171.216L28.8779 178.734L19.2005 156.934L49.0497 178.21L57.6798 158.86L65.472 187.068L89.4771 208.366C88.8905 194.251 89.7075 174.566 95.9077 152.201C105.166 118.779 122.007 95.429 132.942 82.5709L132.963 82.5291Z" fill="#558643"/>
<path d="M325.38 241.977C336.042 238.186 351.291 231.339 366.917 218.899C380.177 208.345 389.31 197.267 395.279 188.765C417.19 178.566 427.6 171.404 426.511 167.237C425.799 164.494 420.039 163.049 409.293 162.923C414.969 158.211 427.935 147.091 426.155 144.264C424.249 141.228 406.235 149.269 399.951 152.159C408.623 134.757 411.848 125.312 409.649 123.805C407.135 122.087 397.563 130.694 380.931 149.646C375.38 136.872 371.316 130.778 368.719 131.343C365.514 132.055 364.55 142.924 365.849 163.991C360.11 168.242 354.245 172.765 348.254 177.624C341.111 183.425 334.429 189.204 328.208 194.838" fill="#65983C"/>
<path d="M325.38 241.977C336.042 238.186 351.291 231.339 366.917 218.899C380.177 208.345 389.31 197.267 395.279 188.765C417.19 178.566 427.6 171.404 426.511 167.237C425.799 164.494 420.039 163.049 409.293 162.923C414.969 158.211 427.935 147.091 426.155 144.264C424.249 141.228 406.235 149.269 399.951 152.159C408.623 134.757 411.848 125.312 409.649 123.805C407.135 122.087 397.563 130.694 380.931 149.646C375.38 136.872 371.316 130.778 368.719 131.343C365.514 132.055 364.55 142.924 365.849 163.991C360.11 168.242 354.245 172.765 348.254 177.624C341.111 183.425 334.429 189.204 328.208 194.838" stroke="black" stroke-miterlimit="10"/>
<path d="M295.049 303C287.969 310.56 256.004 342.579 207.114 341.281C163 340.129 134.261 312.591 126.595 304.654C113.44 290.979 103.721 274.143 97.374 255.798C90.3568 254.521 81.2031 252.008 71.4419 246.814C51.7728 236.343 41.0061 220.972 36.1674 212.91C11.89 203.528 0.138863 197.267 0.913895 194.084C1.50041 191.696 9.22981 191.068 24.0811 192.199C6.33915 176.556 4.8938 172.451 5.73167 171.216C6.54859 170.001 10.6332 169.875 28.8988 178.734C20.6877 165.708 17.4619 158.442 19.2214 156.934C21.3999 155.049 31.3496 162.127 49.0706 178.21C52.2546 165.185 55.1243 158.735 57.7007 158.86C60.738 159.007 63.3354 168.41 65.4929 187.068C69.3262 191.592 74.2068 196.639 80.3233 201.623C84.387 204.931 88.325 207.696 91.9906 209.957C89.3304 181.226 93.834 160.012 98.1071 146.421C112.351 101.083 143.101 84.9163 146.012 42.0075C147.165 24.9612 144.672 10.6582 142.263 1.12988C165.661 5.36004 205.69 16.2077 244.002 46.8658C251.312 52.7294 270.625 68.9171 288.891 95.4917C302.276 114.946 326.406 149.981 327.998 199.717C328.627 218.501 330.114 265.661 295.07 303.021L295.049 303Z" fill="#65983C" stroke="black" stroke-miterlimit="10"/>
<path d="M91.9902 209.937C94.5248 212.01 97.5831 214.188 101.144 216.303C106.192 219.276 110.947 221.287 114.969 222.669" stroke="black" stroke-miterlimit="10"/>
<path d="M97.374 255.777C103.658 256.95 109.942 258.102 116.205 259.275" stroke="black" stroke-miterlimit="10"/>
<path d="M149.05 120.223C143.059 123.386 139.98 130.987 141.509 132.6C142.661 133.814 145.887 131.05 155.501 127.762C164.697 124.642 168.384 124.893 168.446 123.595C168.593 121.291 157.303 115.868 149.029 120.223H149.05Z" fill="black" stroke="black" stroke-miterlimit="10"/>
<path d="M260.403 104.371C253.637 104.203 247.227 109.334 247.793 111.491C248.212 113.103 252.38 112.266 262.372 114.108C271.923 115.868 275.003 117.899 275.715 116.81C276.972 114.883 269.766 104.622 260.424 104.392L260.403 104.371Z" fill="black" stroke="black" stroke-miterlimit="10"/>
<path d="M139.917 244.385C167.986 264.07 196.075 283.776 224.144 303.46C226.155 284.718 228.166 265.975 230.156 247.254L233.005 301.429L296.201 250.123C286.021 261.578 274.584 273.535 261.786 285.639C251.982 294.916 242.347 303.398 233.005 311.125C231.015 319.816 229.025 328.485 227.014 337.176C224.375 337.406 221.756 337.637 219.117 337.867C220.772 328.946 222.406 320.046 224.06 311.125C206.507 301.073 186.712 287.775 166.582 270.226C156.57 261.494 147.73 252.782 139.917 244.385Z" fill="#95BE45" stroke="#8FB442" stroke-width="0.25" stroke-miterlimit="10"/>
<path d="M157.303 82.194C174.165 95.2404 191.048 108.266 207.91 121.312C211.387 134.61 214.844 147.887 218.321 161.185V117.124C224.312 102.486 230.281 87.8691 236.272 73.231C228.983 84.7069 221.672 96.2037 214.383 107.68L170.227 22.9927L203.239 107.324L157.303 82.2149V82.194Z" fill="#95BE45" stroke="#8FB442" stroke-width="0.25" stroke-miterlimit="10"/>
<path d="M186.523 187.466C181.643 179.362 172.196 175.551 163.859 178.001C157.219 179.948 152.087 185.623 150.411 192.681" stroke="black" stroke-width="4" stroke-miterlimit="10"/>
<path d="M286.084 179.76C281.203 171.655 271.756 167.844 263.42 170.294C256.779 172.242 251.647 177.917 249.972 184.974" stroke="black" stroke-width="4" stroke-miterlimit="10"/>
<path d="M192.64 213.057C191.426 217.517 194.777 223.863 200.496 228.595C204.706 232.072 210.173 234.689 216.059 235.066C234.995 236.281 247.521 213.664 243.688 206.041C238.451 195.613 196.097 200.387 192.64 213.057Z" fill="black" stroke="black" stroke-width="2" stroke-miterlimit="10"/>
<path d="M229.318 231.862C227.978 228.449 224.584 221.182 216.855 216.282C207.952 210.628 194.861 209.036 192.64 213.057C189.959 217.915 201.564 234.019 216.059 235.066C221.924 235.485 226.721 233.328 229.318 231.883V231.862Z" fill="#D43616" stroke="black" stroke-width="2" stroke-miterlimit="10"/>
</g>
<defs>
<clipPath id="clip0_69_124">
<rect width="428" height="384" fill="white"/>
</clipPath>
</defs>
</svg>
