<svg width="297" height="372" viewBox="0 0 297 372" fill="none" xmlns="http://www.w3.org/2000/svg">
<path d="M233.569 328.49C239.829 328.49 249.032 328.741 260.112 330.097C273.571 331.746 275.846 333.29 279.956 331.704C295.648 325.694 301.846 288.259 290.139 279.766C286.008 276.761 278.496 276.553 274.051 279.766C269.335 283.168 270.879 288.384 266.81 290.93C261.698 294.123 254.165 289.052 245.902 285.567C238.473 282.437 227.289 279.266 211.597 279.933C216.438 286.256 222.114 294.999 226.788 306.184C230.252 314.468 232.317 322.084 233.59 328.469L233.569 328.49Z" fill="#65983C" stroke="black" stroke-miterlimit="10"/>
<path d="M241.541 301.425C234.488 308.958 202.645 340.864 153.942 339.57C109.015 338.381 80.5531 310.064 73.7296 303.074C55.5963 284.44 48.0635 263.99 44.6204 254.392C43.0137 249.926 37.0666 232.586 36.0859 208.401C35.7103 199.303 35.5225 176.016 45.3299 145.404C62.5033 91.8599 90.2561 82.8037 93.0523 41.3622C94.2 24.3766 91.7168 10.1246 89.3171 0.630188C112.625 4.84529 152.502 15.6543 190.667 46.2033C197.95 52.046 217.189 68.1761 235.385 94.6561C248.719 114.041 272.757 148.952 274.343 198.51C274.969 217.228 276.451 264.22 241.541 301.446V301.425Z" fill="#65983C" stroke="black" stroke-miterlimit="10"/>
<path d="M211.22 196.633C228.599 196.633 242.687 182.078 242.687 164.123C242.687 146.168 228.599 131.612 211.22 131.612C193.841 131.612 179.753 146.168 179.753 164.123C179.753 182.078 193.841 196.633 211.22 196.633Z" fill="white" stroke="white" stroke-miterlimit="10"/>
<path d="M114.189 207.108C132.144 207.108 146.7 192.552 146.7 174.597C146.7 156.642 132.144 142.087 114.189 142.087C96.2342 142.087 81.6787 156.642 81.6787 174.597C81.6787 192.552 96.2342 207.108 114.189 207.108Z" fill="white" stroke="white" stroke-miterlimit="10"/>
<path d="M113.585 200.307C126.584 200.307 137.122 189.768 137.122 176.769C137.122 163.769 126.584 153.231 113.585 153.231C100.585 153.231 90.0469 163.769 90.0469 176.769C90.0469 189.768 100.585 200.307 113.585 200.307Z" fill="black" stroke="black" stroke-miterlimit="10"/>
<path d="M209.217 186.157C221.387 186.157 231.252 176.292 231.252 164.122C231.252 151.952 221.387 142.087 209.217 142.087C197.047 142.087 187.182 151.952 187.182 164.122C187.182 176.292 197.047 186.157 209.217 186.157Z" fill="black" stroke="black" stroke-miterlimit="10"/>
<path d="M122.119 173.868C125.796 173.868 128.776 170.785 128.776 166.982C128.776 163.179 125.796 160.096 122.119 160.096C118.443 160.096 115.463 163.179 115.463 166.982C115.463 170.785 118.443 173.868 122.119 173.868Z" fill="white" stroke="white" stroke-miterlimit="10"/>
<path d="M218.9 161.744C222.576 161.744 225.556 158.661 225.556 154.858C225.556 151.055 222.576 147.972 218.9 147.972C215.223 147.972 212.243 151.055 212.243 154.858C212.243 158.661 215.223 161.744 218.9 161.744Z" fill="white" stroke="white" stroke-miterlimit="10"/>
<path d="M96.1195 119.301C90.1516 122.452 87.0841 130.027 88.6074 131.633C89.7551 132.844 92.9685 130.089 102.546 126.813C111.707 123.704 115.38 123.954 115.442 122.661C115.588 120.365 104.341 114.961 96.0986 119.301H96.1195Z" fill="black" stroke="black" stroke-miterlimit="10"/>
<path d="M207.047 103.505C200.307 103.338 193.922 108.45 194.485 110.6C194.902 112.206 199.055 111.372 209.008 113.208C218.524 114.961 221.591 116.985 222.3 115.9C223.552 113.98 216.374 103.755 207.068 103.526L207.047 103.505Z" fill="black" stroke="black" stroke-miterlimit="10"/>
<path d="M151.02 215.038C155.506 223.343 164.729 227.558 173.138 225.513C179.837 223.885 185.199 218.481 187.203 211.511" stroke="black" stroke-width="2" stroke-miterlimit="10"/>
<path d="M87.021 243.02C114.983 262.634 142.965 282.27 170.927 301.885C172.93 283.209 174.933 264.533 176.915 245.878L179.753 299.861L242.708 248.737C232.567 260.151 221.174 272.066 208.424 284.127C198.659 293.371 189.06 301.822 179.753 309.522C177.771 318.182 175.788 326.821 173.785 335.48C171.156 335.71 168.548 335.94 165.919 336.169C167.567 327.28 169.195 318.411 170.843 309.522C153.357 299.506 133.638 286.256 113.584 268.769C103.61 260.068 94.8043 251.387 87.021 243.02Z" fill="#95BE45" stroke="#8FB442" stroke-width="0.25" stroke-miterlimit="10"/>
<path d="M104.341 81.4064C121.139 94.4064 137.957 107.386 154.755 120.386C158.219 133.636 161.662 146.866 165.126 160.116V116.212C171.094 101.626 177.041 87.0613 183.009 72.4754C175.747 83.9104 168.465 95.3663 161.203 106.801L117.216 22.4159L150.102 106.447L104.341 81.4273V81.4064Z" fill="#95BE45" stroke="#8FB442" stroke-width="0.25" stroke-miterlimit="10"/>
<path d="M163.602 310.629C179.023 316.013 194.423 321.417 209.843 326.801C225.264 313.884 232.567 312.486 236.177 314.761C245.922 320.833 239.975 360.209 221.153 368.889C213.453 372.436 205.148 372.52 187.891 367.408C169.967 362.087 143.445 351.883 113.501 330.891C130.194 324.151 146.888 317.39 163.581 310.65L163.602 310.629Z" fill="#65983C" stroke="black" stroke-miterlimit="10"/>
<path d="M136.601 335.148C153.934 335.148 167.985 328.02 167.985 319.227C167.985 310.433 153.934 303.305 136.601 303.305C119.268 303.305 105.217 310.433 105.217 319.227C105.217 328.02 119.268 335.148 136.601 335.148Z" fill="#65983C"/>
<path d="M48.2921 217.27L23.5858 289.407C7.8522 299.631 -1.4961 311.046 0.861847 315.97C3.2824 321.02 18.8073 320.916 38.1717 313.863C41.7817 319.997 47.8956 323.002 51.8812 321.646C56.7849 319.977 60.4992 311.004 55.825 301.885C62.252 286.986 68.679 272.066 75.0851 257.167" fill="#65983C"/>
<path d="M48.2921 217.27L23.5858 289.407C7.8522 299.631 -1.4961 311.046 0.861847 315.97C3.2824 321.02 18.8073 320.916 38.1717 313.863C41.7817 319.997 47.8956 323.002 51.8812 321.646C56.7849 319.977 60.4992 311.004 55.825 301.885C62.252 286.986 68.679 272.066 75.0851 257.167" stroke="black" stroke-miterlimit="10"/>
</svg>
