<svg width="143" height="129" viewBox="0 0 143 129" fill="none" xmlns="http://www.w3.org/2000/svg">
<path d="M139.368 122H4.63164C2.62593 122 1 123.564 1 125.493V125.507C1 127.436 2.62593 129 4.63164 129H139.368C141.374 129 143 127.436 143 125.507V125.493C143 123.564 141.374 122 139.368 122Z" fill="black"/>
<path d="M67.2375 65H47.7625C46.2368 65 45 66.3145 45 67.9361V123.064C45 124.685 46.2368 126 47.7625 126H67.2375C68.7632 126 70 124.685 70 123.064V67.9361C70 66.3145 68.7632 65 67.2375 65Z" fill="black"/>
<path d="M33.348 97H14.652C13.1874 97 12 98.4727 12 100.289V122.71C12 124.527 13.1874 126 14.652 126H33.348C34.8126 126 36 124.527 36 122.71V100.289C36 98.4727 34.8126 97 33.348 97Z" fill="black"/>
<path d="M100.237 71H80.7625C79.2368 71 78 72.3421 78 73.9976V123.002C78 124.658 79.2368 126 80.7625 126H100.237C101.763 126 103 124.658 103 123.002V73.9976C103 72.3421 101.763 71 100.237 71Z" fill="black"/>
<path d="M133.237 51H113.763C112.237 51 111 52.2937 111 53.8896V123.11C111 124.706 112.237 126 113.763 126H133.237C134.763 126 136 124.706 136 123.11V53.8896C136 52.2937 134.763 51 133.237 51Z" fill="black"/>
<path d="M128.986 4.08091C128.986 4.08091 129 4.20376 129 4.27201V18.1526C129 20.0907 127.429 21.6739 125.519 21.6739C123.609 21.6739 122.038 20.0907 122.038 18.1526V12.0244L81.0381 58.1019C80.2119 59.03 79.0064 59.4395 77.8551 59.2757C77.8144 59.2893 77.7738 59.2893 77.7332 59.2893C77.0559 59.2893 76.3787 59.0983 75.7692 58.7025L50.4406 42.2014L6.33892 91.7866C5.01154 93.2879 2.69538 93.4108 1.20546 92.0732C0.40632 91.3498 0 90.3535 0 89.3435C0 88.47 0.311532 87.5964 0.93459 86.9003C0.93459 86.9003 48.4359 33.6437 49.6279 33.6437C50.3051 33.6437 50.9824 33.8348 51.5919 34.2306L77.5029 51.1002L115.916 7.92981H111.73C109.577 7.92981 107.803 6.1555 107.803 3.97174C107.803 2.87985 108.249 1.88351 108.954 1.16014C109.672 0.450411 110.66 0 111.73 0H125.058C127.226 0 129 1.78797 129 3.97174C129 4.01268 129 4.03996 128.986 4.08091Z" fill="black"/>
</svg>
