<svg width="310" height="71" viewBox="0 0 310 71" fill="none" xmlns="http://www.w3.org/2000/svg">
<path d="M4.66258 1H80.5063C82.5291 1 84.1689 2.6398 84.1689 4.66259V46.9564C84.1689 48.9792 82.5291 50.619 80.5063 50.619H4.66258C2.63979 50.619 0.999985 48.9792 0.999985 46.9564V4.66259C0.999985 2.6398 2.63979 1 4.66258 1Z" fill="white" stroke="black" stroke-width="2" stroke-miterlimit="10"/>
<path d="M89.4547 4.66259V46.9564C89.4547 48.9684 91.0984 50.619 93.1105 50.619H258.023C259.394 51.3079 266.48 54.9091 276.554 56.6892C286.212 58.4012 305.186 59.5879 308.249 52.6515C308.529 52.0172 308.665 51.342 308.679 50.619C308.863 40.8725 286.028 23.9782 280.796 20.111C271.978 13.5906 258.166 3.62588 237.589 1H93.1105C91.0984 1 89.4547 2.64373 89.4547 4.66259Z" fill="white" stroke="black" stroke-width="2" stroke-miterlimit="10"/>
<path d="M298.864 57.5077L300.726 63.0187H264.332L258.834 51.0146" fill="white"/>
<path d="M298.864 57.5077L300.726 63.0187H264.332L258.834 51.0146" stroke="black" stroke-width="2" stroke-miterlimit="10"/>
<path d="M219.903 68.5092C214.961 68.5092 210.955 64.5029 210.955 59.5608C210.955 54.6187 214.961 50.6123 219.903 50.6123C224.845 50.6123 228.852 54.6187 228.852 59.5608C228.852 64.5029 224.845 68.5092 219.903 68.5092Z" fill="white" stroke="black" stroke-width="2" stroke-miterlimit="10"/>
<path d="M249.886 69.2251C244.943 69.2251 240.937 65.2187 240.937 60.2766C240.937 55.3345 244.943 51.3281 249.886 51.3281C254.828 51.3281 258.834 55.3345 258.834 60.2766C258.834 65.2187 254.828 69.2251 249.886 69.2251Z" fill="white" stroke="black" stroke-width="2" stroke-miterlimit="10"/>
<path d="M126.565 69.2188C121.623 69.2188 117.617 65.2124 117.617 60.2703C117.617 55.3282 121.623 51.3218 126.565 51.3218C131.507 51.3218 135.514 55.3282 135.514 60.2703C135.514 65.2124 131.507 69.2188 126.565 69.2188Z" fill="white" stroke="black" stroke-width="2" stroke-miterlimit="10"/>
<path d="M103.423 69.2188C98.4805 69.2188 94.4742 65.2124 94.4742 60.2703C94.4742 55.3282 98.4805 51.3218 103.423 51.3218C108.365 51.3218 112.371 55.3282 112.371 60.2703C112.371 65.2124 108.365 69.2188 103.423 69.2188Z" fill="white" stroke="black" stroke-width="2" stroke-miterlimit="10"/>
<path d="M2.11771 59.5608C2.11771 64.4988 6.12132 68.5092 11.0662 68.5092C16.011 68.5092 19.6122 64.8807 19.9737 60.2769C20.001 60.0655 20.0078 59.8336 20.0078 59.6154C20.0078 59.4994 20.0078 59.3835 20.001 59.2743C19.8783 55.4139 17.3137 52.1742 13.808 51.0488C12.9418 50.7692 12.021 50.6191 11.0662 50.6191C6.12132 50.6191 2.11771 54.6228 2.11771 59.5608Z" fill="white" stroke="black" stroke-width="2" stroke-miterlimit="10"/>
<path d="M213.294 50.6191C210.989 54.4113 208.683 58.2103 206.378 62.0025H140.492C138.016 58.2103 135.547 54.4113 133.071 50.6191H213.287H213.294Z" fill="white" stroke="black" stroke-width="2" stroke-miterlimit="10"/>
<path d="M13.8086 50.6191V51.0488C17.3144 52.1742 19.8789 55.4139 20.0016 59.2743C20.0085 59.3835 20.0084 59.4994 20.0084 59.6154C20.0084 59.8336 20.0016 60.0655 19.9743 60.2769H82.7637V50.6191H13.8086Z" fill="white" stroke="black" stroke-width="2" stroke-miterlimit="10"/>
<path d="M89.4548 17.8329V22.5527C90.5393 22.4845 91.6237 22.4163 92.7082 22.3481C121.075 22.8937 143.091 22.7778 158.389 22.5527C173.163 22.3345 187.943 23.0097 202.716 22.7574C214.467 22.5596 219.528 22.2662 227.624 23.8759C237.882 25.922 246.353 29.7006 257.211 34.55C264.482 37.7965 270.389 40.8043 274.494 42.9869C279.289 45.1285 285.482 47.3793 292.896 48.8866C298.83 50.087 304.184 50.5303 308.679 50.619C308.57 49.9779 308.433 49.3027 308.249 48.5797C308.017 47.6589 307.744 46.8268 307.471 46.0698C304.552 46.1789 300.358 46.1106 295.44 45.224C287.017 43.703 281.206 40.627 275.92 37.9056C267.592 33.6155 258.93 29.987 250.705 25.4992C233.21 15.9641 209.707 16.5439 178.114 16.9599C160.204 17.1918 132.151 17.4715 92.9742 17.4715C91.8011 17.5943 90.6279 17.717 89.4616 17.8398L89.4548 17.8329Z" fill="#BF0010" stroke="black" stroke-width="2" stroke-miterlimit="10"/>
<path d="M258.835 51.0146C253.494 48.2114 252.43 46.3971 247.758 44.2078C241.961 41.4864 236.804 41.0976 233.115 40.8521C222.406 40.1428 166.274 39.8426 89.4548 40.5452V22.5459L218.887 22.7301C221.977 23.0029 226.567 23.569 232.003 24.8717C240.29 26.8496 245.889 29.3118 252.839 32.6129C273.212 42.2912 283.634 47.1678 295.01 49.2481C300.869 50.3189 305.725 50.5576 308.679 50.6122C308.529 51.5602 308.113 53.204 306.796 54.5544C306.162 55.2092 305.139 55.9731 301.845 56.812C298.182 57.7396 295.44 57.8283 295.44 57.8283C282.399 58.2511 272.769 55.9049 272.769 55.9049C268.52 54.8682 264.127 53.7974 258.835 51.0146Z" fill="#1E268E" stroke="black" stroke-width="2" stroke-miterlimit="10"/>
<path d="M288.224 25.8061C286.655 25.9357 256.522 28.2137 253.548 18.59C253.269 17.6761 253.207 16.5712 253.548 15.2344H273.948L288.224 25.8061Z" fill="#ADADAD" stroke="black" stroke-width="2" stroke-miterlimit="10"/>
<path d="M0.999985 17.4648H84.1689V22.5461H0.999985V17.4648Z" fill="#BF0010" stroke="black" stroke-width="2" stroke-miterlimit="10"/>
<path d="M84.1689 40.2178L0.999987 40.8521V22.5527H84.1689V40.2178Z" fill="#1E268E" stroke="black" stroke-width="2" stroke-miterlimit="10"/>
<path d="M12.3353 15.2275H52.6035C53.3041 15.2275 53.8721 15.7955 53.8721 16.4961V34.4954C53.8721 35.196 53.3041 35.764 52.6035 35.764H12.3353C11.6347 35.764 11.0667 35.196 11.0667 34.4954V16.4961C11.0667 15.7955 11.6347 15.2275 12.3353 15.2275Z" fill="#FFF988" stroke="black" stroke-width="2" stroke-miterlimit="10"/>
<path d="M64.9478 17.4648H74.5101C76.0244 17.4648 77.252 18.6924 77.252 20.2066V47.8705C77.252 49.3848 76.0244 50.6124 74.5101 50.6124H64.9478C63.4335 50.6124 62.206 49.3848 62.206 47.8705V20.2066C62.206 18.6924 63.4335 17.4648 64.9478 17.4648Z" stroke="black" stroke-width="2" stroke-miterlimit="10"/>
</svg>
