<svg width="310" height="200" viewBox="0 0 310 200" fill="none" xmlns="http://www.w3.org/2000/svg">
<path d="M71.8464 153.9L112.262 166.074C106.241 178.301 96.0886 188.136 83.6143 193.733C76.2958 197.017 68.1738 198.853 59.6281 198.853C51.0824 198.853 43.7638 197.203 36.7278 194.21C22.735 188.268 11.5232 177.039 5.60833 163.037C2.64205 156.028 1 148.321 1 140.225C1 131.424 2.94221 123.072 6.42052 115.577C12.5208 102.423 23.353 91.9173 36.7278 86.2408C43.7638 83.2481 51.5062 81.5972 59.6281 81.5972C67.7501 81.5972 74.7597 83.098 81.5309 85.8259C83.7644 86.7264 85.9362 87.7593 88.0196 88.9158L69.4539 115.038L61.7998 125.809H72.8528L95.4441 93.8066C102.851 99.5273 108.854 106.987 112.836 115.577C114.857 119.92 116.358 124.564 117.259 129.42L85.9715 127.469L78.0879 126.974C77.4787 126.851 76.8696 126.736 76.2516 126.639C72.2524 125.994 68.3857 125.853 64.8632 126.135C61.1554 126.436 57.8272 127.221 55.1169 128.404C51.0824 130.152 48.4163 132.783 47.8866 136.041C47.4893 138.486 48.3545 140.976 50.1908 143.306C51.5503 145.037 53.4484 146.67 55.7702 148.144C58.5246 149.883 61.8705 151.384 65.6225 152.496C67.6 153.07 69.6834 153.547 71.8464 153.9Z" stroke="black" stroke-width="2" stroke-miterlimit="10"/>
<path d="M308.68 140.225C308.68 148.718 306.879 156.787 303.621 164.07C297.76 177.224 287.192 187.827 274.047 193.733C266.72 197.026 258.606 198.853 250.052 198.853C241.497 198.853 233.384 197.026 226.057 193.733C212.567 187.677 201.797 176.668 196.032 163.037C193.066 156.028 191.424 148.321 191.424 140.225C191.424 131.424 193.366 123.072 196.844 115.577C201.691 105.115 209.53 96.3403 219.268 90.3194C224.291 106.466 232.519 127.804 242.936 136.509C244.932 138.177 247.006 139.387 249.151 140.005L249.584 139.81L249.69 139.572L249.902 139.678L254.837 137.533C254.546 137.162 253.566 135.926 252.127 133.984C246.273 126.074 232.784 106.493 226.675 86.4527C233.835 83.3275 241.745 81.5972 250.052 81.5972C258.359 81.5972 265.925 83.2481 272.961 86.2408C286.61 92.0409 297.601 102.856 303.621 116.38C306.879 123.664 308.68 131.733 308.68 140.225Z" stroke="black" stroke-width="2" stroke-miterlimit="10"/>
<path d="M254.934 137.656L250.546 139.969L250.052 140.225C249.858 140.181 249.655 140.137 249.46 140.093C249.354 140.058 249.257 140.031 249.151 140.005L249.584 139.81L249.69 139.572L249.902 139.678L254.837 137.533C254.899 137.612 254.934 137.656 254.934 137.656Z" stroke="black" stroke-width="2" stroke-miterlimit="10"/>
<path d="M138.395 130.179C137.45 130.179 134.669 130.267 133.61 130.435L127.589 130.064C127.589 130.064 136.673 130.143 138.395 130.179Z" stroke="black" stroke-width="2" stroke-miterlimit="10"/>
<path d="M139.099 163.037C133.361 163.037 128.717 158.394 128.717 152.655C128.717 146.917 133.361 142.282 139.099 142.282C143.125 142.282 146.612 144.569 148.324 147.923H159.801C159.28 144.992 158.124 142.256 156.455 139.863C154.416 136.915 151.609 134.478 148.298 132.783C145.411 131.3 142.145 130.382 138.658 130.188C138.622 130.188 138.534 130.188 138.393 130.188C137.448 130.188 134.667 130.276 133.608 130.444L127.587 130.073L117.258 129.428L85.9708 127.477L78.0872 126.983C77.4781 126.859 76.8689 126.745 76.251 126.648C72.2518 126.003 68.385 125.862 64.8626 126.144C61.1547 126.444 57.8265 127.23 55.1162 128.413C51.0817 130.161 48.4156 132.792 47.8859 136.05C47.4887 138.495 48.3538 140.985 50.1901 143.315C51.5496 145.045 53.4477 146.679 55.7695 148.153C58.5239 149.892 61.8698 151.393 65.6218 152.505C67.5993 153.079 69.6828 153.556 71.8457 153.909L112.261 166.083L128.717 171.045L131.842 171.989H131.877C133.608 172.395 135.426 172.607 137.298 172.607C147.645 172.607 156.385 166.198 159.165 157.405H148.324C146.612 160.76 143.125 163.046 139.099 163.046V163.037Z" fill="#303030" stroke="black" stroke-width="2" stroke-miterlimit="10"/>
<path d="M138.395 130.179C137.45 130.179 134.669 130.267 133.61 130.435L127.589 130.064C127.589 130.064 136.673 130.143 138.395 130.179Z" stroke="black" stroke-width="2" stroke-miterlimit="10"/>
<path d="M141.28 157.396H148.325C146.613 160.751 143.125 163.037 139.1 163.037C133.361 163.037 128.718 158.394 128.718 152.655C128.718 146.917 133.361 142.282 139.1 142.282C143.125 142.282 146.613 144.569 148.325 147.923H141.28C139.983 147.923 138.8 148.453 137.934 149.309C137.078 150.166 136.548 151.349 136.548 152.655C136.548 155.26 138.676 157.396 141.28 157.396Z" stroke="black" stroke-width="2" stroke-miterlimit="10"/>
<path d="M131.843 171.98C130.766 171.742 129.724 171.424 128.718 171.036L131.843 171.98Z" stroke="black" stroke-width="2" stroke-miterlimit="10"/>
<path d="M100.485 22.8274C88.3546 22.0593 82.7575 18.3251 77.849 22.2624C75.3507 24.2753 73.638 27.7801 74.1677 30.764C75.2359 36.8025 85.6708 41.7639 100.485 40.9252C101.897 39.7864 104.307 38.0473 107.591 36.5906C118.088 31.9381 126.272 35.2222 129.088 30.7463C130.421 28.6276 130.253 25.2463 128.717 23.1629C125.159 18.3603 116.702 23.8603 100.485 22.8274Z" fill="#ADADAD" stroke="black" stroke-width="2" stroke-miterlimit="10"/>
<path d="M204.711 36.5909C200.897 30.9585 200.897 27.2859 201.559 25.0083C202.362 22.2097 204.172 21.4681 207.951 16.0035C210.785 11.9072 212.948 8.77321 212.082 7.6432C211.058 6.30131 206.476 8.59662 194.973 12.6399C183.541 16.6656 181.069 16.8598 179.312 15.5356C176.752 13.6111 176.116 8.8085 177.864 5.79808C179.339 3.25556 182.402 2.16084 193.128 1.58701C210.096 0.686531 218.58 0.236308 221.158 4.74752C223.338 8.55248 221.679 14.6263 218.915 18.1664C215.358 22.7306 210.617 22.2627 209.443 25.8028C208.807 27.7185 209.169 30.9673 214.581 36.5997H204.702L204.711 36.5909Z" fill="#ADADAD" stroke="black" stroke-width="2" stroke-miterlimit="10"/>
<path d="M173.211 151.34H166.811C165.513 151.34 164.321 151.878 163.465 152.735C162.6 153.591 162.07 154.774 162.07 156.081C162.07 156.54 162.132 156.981 162.256 157.396H141.28C138.675 157.396 136.548 155.26 136.548 152.655C136.548 151.349 137.078 150.166 137.934 149.309C138.799 148.453 139.982 147.923 141.28 147.923H168.656C170.801 147.923 172.638 149.371 173.211 151.34Z" fill="#C1BDBC" stroke="black" stroke-width="2" stroke-miterlimit="10"/>
<path d="M181.023 156.081C181.023 157.387 180.494 158.57 179.637 159.427C178.772 160.283 177.589 160.821 176.292 160.821H166.81C164.665 160.821 162.829 159.365 162.255 157.396C162.131 156.981 162.069 156.54 162.069 156.081C162.069 154.774 162.599 153.591 163.464 152.735C164.321 151.878 165.512 151.34 166.81 151.34H176.292C178.896 151.34 181.023 153.476 181.023 156.081Z" fill="#303030" stroke="black" stroke-width="2" stroke-miterlimit="10"/>
<path d="M141.28 157.396H148.325C146.613 160.751 143.125 163.037 139.1 163.037C133.361 163.037 128.718 158.394 128.718 152.655C128.718 146.917 133.361 142.282 139.1 142.282C143.125 142.282 146.613 144.569 148.325 147.923H141.28C139.983 147.923 138.8 148.453 137.934 149.309C137.078 150.166 136.548 151.349 136.548 152.655C136.548 155.26 138.676 157.396 141.28 157.396Z" fill="#C1BDBC" stroke="black" stroke-width="2" stroke-miterlimit="10"/>
<path d="M254.837 137.533L249.902 139.678L249.69 139.572L249.585 139.811L249.152 140.005C247.007 139.387 244.932 138.177 242.937 136.509C232.52 127.804 224.292 106.466 219.268 90.3197C215.737 78.949 213.795 70.1473 213.795 70.1473L156.456 139.864C154.417 136.915 151.609 134.478 148.299 132.783L209.849 57.9026L207.871 52.7734L130.095 104.886L138.658 130.188C138.658 130.188 138.535 130.188 138.393 130.188C136.672 130.153 127.588 130.073 127.588 130.073L110.752 72.1248L95.4441 93.8157L72.8527 125.818H61.7998L69.4539 115.048L88.0196 88.9248L106.409 63.0494L100.485 40.9347L107.592 36.6001L127.332 94.6279L204.711 43.698V36.6001H214.59C231.169 65.4154 223.665 70.9418 223.665 70.9418C223.992 76.018 225.086 81.2531 226.675 86.4618C232.784 106.502 246.274 126.083 252.127 133.993C253.566 135.935 254.546 137.171 254.837 137.542V137.533Z" fill="#FF662A" stroke="black" stroke-width="2" stroke-miterlimit="10"/>
<path d="M303.621 164.071L250.546 139.97L249.901 139.678" stroke="black" stroke-width="2" stroke-miterlimit="10"/>
<path d="M242.937 136.509L196.845 115.577" stroke="black" stroke-width="2" stroke-miterlimit="10"/>
<path d="M226.058 193.733L249.461 140.093L249.585 139.81" stroke="black" stroke-width="2" stroke-miterlimit="10"/>
<path d="M272.962 86.2407L252.127 133.984" stroke="black" stroke-width="2" stroke-miterlimit="10"/>
<path d="M303.621 116.38L254.836 137.533" stroke="black" stroke-width="2" stroke-miterlimit="10"/>
<path d="M249.902 139.678L249.584 139.811" stroke="black" stroke-width="2" stroke-miterlimit="10"/>
<path d="M249.153 140.004L196.033 163.037" stroke="black" stroke-width="2" stroke-miterlimit="10"/>
<path d="M274.039 193.733L250.053 140.226" stroke="black" stroke-width="2" stroke-miterlimit="10"/>
<path d="M83.6139 193.733L65.6221 152.497" stroke="black" stroke-width="2" stroke-miterlimit="10"/>
<path d="M55.1167 128.404L36.7275 86.2407" stroke="black" stroke-width="2" stroke-miterlimit="10"/>
<path d="M112.835 115.577L85.9707 127.469" stroke="black" stroke-width="2" stroke-miterlimit="10"/>
<path d="M50.1908 143.306L5.6084 163.037" stroke="black" stroke-width="2" stroke-miterlimit="10"/>
<path d="M6.4209 115.577L47.887 136.041" stroke="black" stroke-width="2" stroke-miterlimit="10"/>
<path d="M65.0045 125.809L64.8633 126.135" stroke="black" stroke-width="2" stroke-miterlimit="10"/>
<path d="M81.5311 85.8262L69.4541 115.039" stroke="black" stroke-width="2" stroke-miterlimit="10"/>
<path d="M55.77 148.144L36.7275 194.21" stroke="black" stroke-width="2" stroke-miterlimit="10"/>
</svg>
