<?xml version="1.0" encoding="UTF-8"?>
<svg id="Calque_6" data-name="Calque 6" xmlns="http://www.w3.org/2000/svg" viewBox="0 0 720 1456">
  <defs>
    <style>
      .cls-1 {
        fill: #75ac44;
      }

      .cls-1, .cls-2, .cls-3, .cls-4, .cls-5, .cls-6, .cls-7, .cls-8, .cls-9, .cls-10 {
        stroke: #000;
        stroke-miterlimit: 10;
      }

      .cls-2 {
        fill: none;
      }

      .cls-3 {
        fill: #5fa038;
      }

      .cls-4 {
        fill: #f49971;
      }

      .cls-5 {
        fill: #efd3ac;
      }

      .cls-6 {
        fill: #ed7c44;
      }

      .cls-7 {
        fill: #8ea6ad;
      }

      .cls-8 {
        fill: #c8a176;
      }

      .cls-9 {
        fill: #487c3a;
      }

      .cls-10 {
        fill: #adc1c9;
      }
    </style>
  </defs>
  <path class="cls-3" d="M381.44,828.4c0,3.99-3.24,7.23-7.23,7.23s-7.1-3.11-7.22-6.99c-.01-.08-.01-.16-.01-.24,0-4,3.23-7.23,7.23-7.23s7.23,3.23,7.23,7.23Z"/>
  <path class="cls-7" d="M519.99,854.9c0,8.15-2.81,15.99-7.98,23.31-20.14,28.45-76.13,48.92-142.05,48.92-69.34,0-127.7-22.64-144.89-53.41-3.35-6-5.14-12.31-5.14-18.82,0-39.89,67.17-72.22,150.04-72.22s150.04,32.34,150.04,72.22Z"/>
  <path class="cls-10" d="M369.96,950.83c87.8,0,137.26-65.98,142.05-72.62-15.07,11.75-67.71,49.81-144.74,48.92-73.72-.86-123.92-36.87-139.37-48.92,4.8,6.64,54.25,72.62,142.05,72.62Z"/>
  <g>
    <polygon class="cls-1" points="402.45 820.62 410.8 836.12 417.96 833.14 419.75 817.04 414.68 814.95 409.31 817.64 409.31 824.19 405.43 818.23 402.45 820.62"/>
    <path class="cls-9" d="M428.23,810.48c-.45,3.78-3.88,6.49-7.66,6.05-1.3-.15-2.48-.65-3.44-1.41-.9,4.04-4.91,6.81-9.35,6.29-1.59-.19-3.02-.77-4.21-1.64-1.81,2.09-4.88,3.27-8.18,2.88-4.94-.58-8.54-4.46-8.04-8.67.26-2.24,1.63-4.12,3.6-5.29-.55-1.13-.79-2.44-.63-3.79.45-3.79,3.88-6.5,7.66-6.06.82.1,1.6.34,2.29.69.75-3.42,3.99-5.77,7.54-5.36,2.32.27,4.23,1.67,5.27,3.58,1.32-.9,2.96-1.33,4.66-1.13,3.43.4,5.97,3.26,6.08,6.61,2.89,1.1,4.78,4.05,4.4,7.25Z"/>
  </g>
  <polygon class="cls-1" points="439.14 824.71 431.75 840.7 438.43 844.63 452.38 836.39 451 831.09 445.64 828.41 440.39 832.35 442.83 825.67 439.14 824.71"/>
  <path class="cls-9" d="M462.72,839.24c-3.29,1.92-7.52.8-9.43-2.5-.66-1.13-.97-2.38-.94-3.6-3.77,1.71-8.4.16-10.64-3.7-.8-1.38-1.2-2.88-1.21-4.35-2.76-.19-5.54-1.93-7.22-4.81-2.5-4.3-1.56-9.5,2.11-11.64,1.95-1.14,4.27-1.17,6.4-.3.57-1.12,1.48-2.1,2.65-2.78,3.3-1.92,7.53-.8,9.44,2.49.42.72.69,1.48.82,2.25,3.18-1.45,7.01-.27,8.81,2.81,1.18,2.02,1.21,4.39.3,6.36,1.52.52,2.84,1.56,3.71,3.05,1.73,2.98.98,6.73-1.63,8.83.86,2.97-.37,6.25-3.16,7.88Z"/>
  <circle class="cls-3" cx="369.89" cy="806.2" r="7.23"/>
  <path class="cls-3" d="M369.89,818.73c0,3.87-2.87,7.03-6.51,7.3-.18.02-.35.03-.53.03-2.82,0-5.26-1.72-6.38-4.22-.44-.94-.67-1.99-.67-3.11,0-4.04,3.16-7.32,7.05-7.32,1.07,0,2.09.25,3,.71.36.17.72.37,1.04.63,0,.01,0,.02.02.02,1.8,1.32,2.98,3.49,2.98,5.96Z"/>
  <circle class="cls-3" cx="382.85" cy="813.43" r="7.23"/>
  <circle class="cls-3" cx="388.67" cy="827.44" r="7.23"/>
  <circle class="cls-3" cx="391.8" cy="839.24" r="7.23"/>
  <circle class="cls-3" cx="397.32" cy="853.7" r="7.23"/>
  <circle class="cls-3" cx="406.26" cy="844.63" r="7.23"/>
  <circle class="cls-3" cx="418.97" cy="840.83" r="7.23"/>
  <path class="cls-3" d="M434.21,830.16c0,3.99-3.24,7.23-7.23,7.23s-7.23-3.24-7.23-7.23c0-3.99,3.24-7.23,7.23-7.23s7.23,3.24,7.23,7.23Z"/>
  <path class="cls-4" d="M356.79,892.7c.54-5.72,7.09-7.97,21.66-16.33,27.73-15.91,25.99-20.38,39.59-25.54,8.69-3.3,25.09-7.43,49.4-1.29,0,0,24.3,20.57,24.3,20.57h0c-25.8-9.75-42.37-6.24-51.28-2.83-11.67,4.46-27.57,15.38-40.48,27.83-8.83,8.52-12.68,14.31-19.31,15.5-.57.1-1.16.17-1.78.2-10.75.58-22.89-9.88-22.11-18.11Z"/>
  <path class="cls-6" d="M443.89,895c-3.34,1.05-5.32,3.36-5.72,3.79-3.2,3.46-17.78,7.5-57.5,11.81-.2.02,1.41-.04,3.88-1.14,2.74-1.22,4.47-2.96,7.25-5.87,3.22-3.37,4.83-5.06,5.5-5.85,4.62-5.46,10.6-9.8,16.18-14.29,5.94-4.79,14.9-10.97,27.69-16.44,4.88-1.63,11.55-3.24,19.55-3.46,14.03-.38,24.98,3.73,31.01,6.56v7.01c-24.66,16.61-34.95,19.54-39.37,18.19-.79-.24-4.46-1.56-8.48-.3Z"/>
  <path class="cls-2" d="M381.27,851.04c-.94.47-2.01.81-3.16,1-.31.05-.62.09-.93.11.3-.2.61-.37.94-.52,1-.45,2.07-.64,3.15-.59Z"/>
  <path class="cls-5" d="M387.09,871.46c-.74.33-1.5.53-2.29.58-2.46,2.99-9.98,7.13-14.69,9.1-.77.32-4.51,1.85-8.59,4.96-1.56,1.19-2.6,2-3.52,3.29-2.5,3.55-2.09,7.98-1.6,10.46-4.12-4.97-10.32-5.79-13.58-3.21-2.79,2.21-2.7,6.35-2.67,7.01-12.53,2.09-6.76,4.32-6.76,4.32-30.17-2.54-52.43-10.55-66.38-16.83-22.45-10.12-25.02-16.55-25.76-19.07-.14-.49-.27-.99-.36-1.49-1.85-1.78-3-4.28-3-7.05,0-3.04,1.38-5.75,3.54-7.56.51-2.58,2.02-4.79,4.11-6.22-.03-.32-.04-.64-.04-.97,0-4.47,2.72-8.17,6.3-8.94.34-3.35,2.36-6.2,5.2-7.7.65-4.34,4.14-7.75,8.52-8.28.94-3.07,3.13-5.22,5.69-5.22,1.06,0,2.06.37,2.94,1.03.36-4.23,2.96-7.52,6.13-7.52,1.65,0,3.15.89,4.27,2.35.6-3.83,3.07-6.7,6.03-6.7,1.6,0,3.06.84,4.16,2.22.67-3.68,3.09-6.39,5.97-6.39s5.15,2.56,5.91,6.08c.7-3.89,3.79-6.82,7.5-6.82,3.37,0,6.23,2.43,7.25,5.8.82-3.37,3.13-5.8,5.85-5.8,2.53,0,4.7,2.1,5.64,5.1,4.03-2.25,8.6-1.73,10.29,1.18.98,1.71.76,3.86-.39,5.83,0,0,.02-.01.03-.02,3.77-2.82,8.48-2.88,10.52-.14,1.15,1.54,1.2,3.65.35,5.69.83.38,1.64.77,2.45,1.18,1.15,2.47,3.65,4.17,6.55,4.17.18,0,.36-.01.54-.03,1.31.88,2.58,1.81,3.79,2.79.12,3.88,3.3,6.99,7.22,6.99,1.11,1.31,2.15,2.68,3.13,4.1,4.15-.25,7.7,1.78,8.19,4.86.32,1.98-.7,3.96-2.55,5.39.22.51.43,1.01.62,1.51,2.73.93,5.29,3.27,6.77,6.55,2.47,5.48,1,11.49-3.28,13.42Z"/>
  <ellipse class="cls-8" cx="314.06" cy="816.43" rx="3" ry="6.86" transform="translate(-559.53 861.51) rotate(-71.91)"/>
  <ellipse class="cls-8" cx="337.66" cy="837.98" rx="3" ry="6.86" transform="translate(-563.75 898.81) rotate(-71.91)"/>
  <ellipse class="cls-8" cx="359.3" cy="859.97" rx="3" ry="6.86" transform="translate(-569.72 934.55) rotate(-71.91)"/>
  <ellipse class="cls-8" cx="335.3" cy="853.7" rx="3" ry="6.86" transform="translate(-580.31 907.41) rotate(-71.91)"/>
  <ellipse class="cls-8" cx="300.68" cy="840.83" rx="3" ry="6.86" transform="translate(-591.94 865.63) rotate(-71.91)"/>
  <path class="cls-8" d="M273.55,833.59c0-1.66,3.07-3,6.86-3,3.79,0,6.86,1.34,6.86,3,0,1.66-3.07,3-6.86,3-3.79,0-6.86-1.34-6.86-3Z"/>
  <path class="cls-8" d="M290.7,864.6c0-1.66,3.07-3,6.86-3,3.79,0,6.86,1.34,6.86,3,0,1.66-3.07,3-6.86,3-3.79,0-6.86-1.34-6.86-3Z"/>
  <path class="cls-8" d="M264.31,853.7c0-1.66,3.07-3,6.86-3,3.79,0,6.86,1.34,6.86,3,0,1.66-3.07,3-6.86,3-3.79,0-6.86-1.34-6.86-3Z"/>
  <path class="cls-8" d="M327.22,876.96c0-1.66,3.07-3,6.86-3,3.79,0,6.86,1.34,6.86,3,0,1.66-3.07,3-6.86,3-3.79,0-6.86-1.34-6.86-3Z"/>
  <ellipse class="cls-8" cx="303.37" cy="882.32" rx="3" ry="6.86" transform="translate(-620 1016.18) rotate(-79.27)"/>
  <circle class="cls-3" cx="346.35" cy="901.62" r="7.23"/>
  <circle class="cls-3" cx="356.76" cy="904.28" r="7.23"/>
  <circle class="cls-3" cx="337.66" cy="907.28" r="7.23"/>
</svg>