<svg width="309" height="132" viewBox="0 0 309 132" fill="none" xmlns="http://www.w3.org/2000/svg">
<path d="M154.34 131.38C239.303 131.38 308.18 102.082 308.18 65.94C308.18 29.7985 239.303 0.5 154.34 0.5C69.3765 0.5 0.5 29.7985 0.5 65.94C0.5 102.082 69.3765 131.38 154.34 131.38Z" fill="#ADC1C9" stroke="black" stroke-miterlimit="10"/>
<path d="M277.861 44.1901C271.621 31.5301 254.061 56.8901 254.061 56.8901C254.061 56.8901 284.091 56.8501 277.861 44.1901Z" fill="#699B12" stroke="black" stroke-miterlimit="10"/>
<path d="M254.22 60.01C254.22 60.01 274.35 37.72 260.78 33.84C247.21 29.96 254.22 60.01 254.22 60.01Z" fill="#699B12" stroke="black" stroke-miterlimit="10"/>
<path d="M107.449 32.65C105.019 33.12 97.3493 34.94 92.1993 41.86C85.4893 50.87 87.0693 63.16 92.1093 70.95C98.4293 80.71 109.699 82.64 115.459 83.62C124.029 85.09 124.489 82.53 132.799 83.29C150.959 84.95 154.829 97.73 172.049 98.32C175.799 98.45 183.349 98.71 188.829 93.68C195.419 87.63 196.249 76.45 193.189 68.5C189.839 59.77 184.119 60.94 176.359 49.54C169.529 39.51 172.619 36.63 166.149 28.7C164.199 26.31 154.299 14.79 141.309 15.44C139.519 15.53 134.999 17.24 125.959 20.65C118.949 23.3 115.789 24.84 115.289 27.48C114.739 30.4 117.839 32.66 116.959 33.98C116.359 34.88 114.119 35.08 107.459 32.65H107.449Z" fill="#763725" stroke="black" stroke-width="3" stroke-miterlimit="10"/>
<path d="M164.929 73.7202C165.389 73.1902 158.779 66.0502 151.369 59.6602C138.209 48.3002 131.639 42.6202 129.829 41.3602C129.229 40.9402 127.429 39.7102 126.079 37.4202C125.649 36.6802 123.439 32.9302 124.629 29.3002C125.559 26.4902 127.719 26.2302 131.739 22.0202C133.659 20.0102 134.999 18.1702 135.789 16.9902C131.839 18.3202 128.399 19.6502 125.519 20.8602C116.989 24.4302 115.629 25.9102 115.289 27.4702C114.659 30.4002 117.839 32.6402 116.959 33.9702C116.389 34.8402 114.229 35.1003 107.459 32.6403C105.019 33.2503 101.529 34.4402 97.8989 36.8602C95.5389 38.4402 93.7389 40.1202 92.4189 41.5602C94.1689 42.6502 97.0289 44.1102 100.679 44.4202C106.209 44.8902 109.089 42.2902 112.689 41.3602C119.199 39.6902 124.709 44.3302 142.769 57.9202C156.789 68.4702 164.479 74.2402 164.939 73.7102L164.929 73.7202Z" fill="#B59F81" stroke="black" stroke-width="2" stroke-miterlimit="10"/>
<path d="M88.1895 51.02C91.5095 57.54 97.1394 65.8601 106.679 70.3901C119.029 76.2701 124.489 69.4001 140.699 74.5001C155.239 79.0801 158.109 86.88 172.049 87.28C176.059 87.4 181.999 87.4801 186.389 83.3901C193.559 76.7001 190.539 64.4901 190.279 63.4901" stroke="black" stroke-width="2" stroke-miterlimit="10"/>
<path d="M95.8594 57.4102L122.379 49.4902" stroke="black" stroke-miterlimit="10"/>
<path d="M112.789 46.3198L106.449 63.1598" stroke="black" stroke-miterlimit="10"/>
<path d="M106.449 64.5801L132.719 56.8901" stroke="black" stroke-miterlimit="10"/>
<path d="M119.589 52.4102L113.869 66.5002" stroke="black" stroke-miterlimit="10"/>
<path d="M127.299 51.8198L121.539 69.1698" stroke="black" stroke-miterlimit="10"/>
<path d="M141.31 61.4102L138.97 69.5801" stroke="black" stroke-miterlimit="10"/>
<path d="M125.129 70.0801L145.559 64.0801" stroke="black" stroke-miterlimit="10"/>
<path d="M134.879 40.8198L144.059 21.2197" stroke="black" stroke-miterlimit="10"/>
<path d="M129.629 31.48L157.479 28.48" stroke="black" stroke-miterlimit="10"/>
<path d="M158.309 29.98L149.229 51.82" stroke="black" stroke-miterlimit="10"/>
<path d="M136.64 41.32L167.74 38.98" stroke="black" stroke-miterlimit="10"/>
<path d="M166.729 42.0698L158.729 60.7398" stroke="black" stroke-miterlimit="10"/>
<path d="M146.56 51.0198L169.99 48.8198" stroke="black" stroke-miterlimit="10"/>
<path d="M156.149 58.6601L175.409 58.0801" stroke="black" stroke-miterlimit="10"/>
<path d="M174.819 59.4502L168.899 76.5901" stroke="black" stroke-miterlimit="10"/>
<path d="M167.149 68.42L184.739 66.5" stroke="black" stroke-miterlimit="10"/>
<path d="M181.489 68.02L177.739 80.59" stroke="black" stroke-miterlimit="10"/>
<path d="M167.739 79.2599L187.499 74.6699" stroke="black" stroke-miterlimit="10"/>
<path d="M48.4302 55.9297C52.4232 55.9297 55.6602 52.6928 55.6602 48.6998C55.6602 44.7067 52.4232 41.4697 48.4302 41.4697C44.4372 41.4697 41.2002 44.7067 41.2002 48.6998C41.2002 52.6928 44.4372 55.9297 48.4302 55.9297Z" fill="#5FA038" stroke="black" stroke-miterlimit="10"/>
<path d="M41.2007 68.3697C45.1937 68.3697 48.4307 65.1327 48.4307 61.1397C48.4307 57.1467 45.1937 53.9097 41.2007 53.9097C37.2077 53.9097 33.9707 57.1467 33.9707 61.1397C33.9707 65.1327 37.2077 68.3697 41.2007 68.3697Z" fill="#5FA038" stroke="black" stroke-miterlimit="10"/>
<path d="M52.7495 78.1299C56.7426 78.1299 59.9795 74.8929 59.9795 70.8999C59.9795 66.9069 56.7426 63.6699 52.7495 63.6699C48.7565 63.6699 45.5195 66.9069 45.5195 70.8999C45.5195 74.8929 48.7565 78.1299 52.7495 78.1299Z" fill="#5FA038" stroke="black" stroke-miterlimit="10"/>
<path d="M67.5796 41.19C71.5726 41.19 74.8096 37.953 74.8096 33.96C74.8096 29.9669 71.5726 26.73 67.5796 26.73C63.5866 26.73 60.3496 29.9669 60.3496 33.96C60.3496 37.953 63.5866 41.19 67.5796 41.19Z" fill="#5FA038" stroke="black" stroke-miterlimit="10"/>
<path d="M61.3999 63.1597C65.3929 63.1597 68.6299 59.9227 68.6299 55.9297C68.6299 51.9367 65.3929 48.6997 61.3999 48.6997C57.4069 48.6997 54.1699 51.9367 54.1699 55.9297C54.1699 59.9227 57.4069 63.1597 61.3999 63.1597Z" fill="#5FA038" stroke="black" stroke-miterlimit="10"/>
<path d="M74.8199 51.7798C78.8129 51.7798 82.0499 48.5428 82.0499 44.5498C82.0499 40.5568 78.8129 37.3198 74.8199 37.3198C70.8268 37.3198 67.5898 40.5568 67.5898 44.5498C67.5898 48.5428 70.8268 51.7798 74.8199 51.7798Z" fill="#5FA038" stroke="black" stroke-miterlimit="10"/>
<path d="M70.3394 74.2896C74.3324 74.2896 77.5694 71.0527 77.5694 67.0596C77.5694 63.0666 74.3324 59.8296 70.3394 59.8296C66.3464 59.8296 63.1094 63.0666 63.1094 67.0596C63.1094 71.0527 66.3464 74.2896 70.3394 74.2896Z" fill="#5FA038" stroke="black" stroke-miterlimit="10"/>
<path d="M70.3394 88.9697C74.3324 88.9697 77.5694 85.7328 77.5694 81.7397C77.5694 77.7467 74.3324 74.5098 70.3394 74.5098C66.3464 74.5098 63.1094 77.7467 63.1094 81.7397C63.1094 85.7328 66.3464 88.9697 70.3394 88.9697Z" fill="#5FA038" stroke="black" stroke-miterlimit="10"/>
<path d="M88.8999 33.96C92.8929 33.96 96.1299 30.723 96.1299 26.73C96.1299 22.737 92.8929 19.5 88.8999 19.5C84.9069 19.5 81.6699 22.737 81.6699 26.73C81.6699 30.723 84.9069 33.96 88.8999 33.96Z" fill="#5FA038" stroke="black" stroke-miterlimit="10"/>
<path d="M242.44 48.7999C245.63 49.0099 248.89 50.0599 251.82 51.6699C257.78 54.9399 262.42 60.4999 262.56 65.9399C262.64 68.9199 261.45 75.2199 228.42 93.2199C206.61 105.11 186.91 115.85 183.55 111.56C180.76 107.99 190.87 96.1299 206.06 78.3199C231.1 48.9499 239.17 48.5899 242.43 48.7999H242.44Z" fill="#FFB000" stroke="black" stroke-miterlimit="10"/>
<path d="M204.43 89.9399C204.43 89.9399 211.59 90.5399 213.23 94.5599" stroke="black" stroke-miterlimit="10"/>
<path d="M213.23 79.2598C213.23 79.2598 224.07 80.2197 226.55 86.6797" stroke="black" stroke-miterlimit="10"/>
<path d="M222.15 69.54C222.15 69.54 229.31 70.14 230.95 74.16" stroke="black" stroke-miterlimit="10"/>
</svg>
