<svg width="309" height="132" viewBox="0 0 309 132" fill="none" xmlns="http://www.w3.org/2000/svg">
<path d="M154.34 131.38C239.303 131.38 308.18 102.082 308.18 65.94C308.18 29.7985 239.303 0.5 154.34 0.5C69.3765 0.5 0.5 29.7985 0.5 65.94C0.5 102.082 69.3765 131.38 154.34 131.38Z" fill="#ADC1C9" stroke="black" stroke-miterlimit="10"/>
<path d="M110.701 31.3198C107.821 31.8798 98.7207 34.0398 92.6107 42.2398C84.6507 52.9298 86.5207 67.4998 92.5107 76.7398C100.011 88.3198 113.371 90.5998 120.201 91.7698C130.361 93.5098 130.911 90.4698 140.771 91.3698C162.311 93.3398 166.901 108.49 187.321 109.2C191.771 109.35 200.721 109.66 207.221 103.7C215.041 96.5198 216.021 83.2698 212.391 73.8398C208.411 63.4798 201.631 64.8698 192.431 51.3598C184.331 39.4598 187.991 36.0398 180.321 26.6398C178.001 23.7998 166.271 10.1398 150.861 10.9198C148.731 11.0298 143.371 13.0498 132.651 17.0998C124.331 20.2398 120.591 22.0698 120.001 25.1998C119.351 28.6598 123.021 31.3398 121.981 32.9098C121.271 33.9798 118.611 34.2198 110.711 31.3298L110.701 31.3198Z" fill="#763725" stroke="black" stroke-width="3" stroke-miterlimit="10"/>
<path d="M178.861 80.03C179.411 79.4 171.561 70.94 162.781 63.35C147.181 49.88 139.381 43.14 137.231 41.65C136.521 41.15 134.381 39.69 132.791 36.98C132.281 36.11 129.651 31.66 131.081 27.36C132.181 24.03 134.741 23.71 139.521 18.72C141.801 16.34 143.381 14.15 144.321 12.75C139.641 14.32 135.551 15.91 132.141 17.34C122.031 21.57 120.411 23.33 120.011 25.18C119.271 28.65 123.031 31.31 121.991 32.89C121.311 33.92 118.751 34.23 110.721 31.31C107.821 32.03 103.691 33.44 99.3809 36.32C96.5909 38.19 94.4509 40.19 92.8809 41.89C94.9609 43.19 98.3509 44.91 102.671 45.28C109.231 45.84 112.651 42.75 116.911 41.65C124.631 39.66 131.171 45.17 152.581 61.28C169.211 73.79 178.331 80.64 178.881 80.01L178.861 80.03Z" fill="#B59F81" stroke="black" stroke-width="2" stroke-miterlimit="10"/>
<path d="M87.8506 53.0996C91.7806 60.8296 98.4706 70.6996 109.771 76.0696C124.421 83.0396 130.891 74.8996 150.111 80.9496C167.361 86.3796 170.761 95.6296 187.291 96.1096C192.051 96.2496 199.091 96.3496 204.301 91.4996C212.801 83.5696 209.231 69.0896 208.911 67.8996" stroke="black" stroke-width="2" stroke-miterlimit="10"/>
<path d="M96.9512 60.69L128.401 51.29" stroke="black" stroke-miterlimit="10"/>
<path d="M117.031 47.54L109.511 67.51" stroke="black" stroke-miterlimit="10"/>
<path d="M109.511 69.1898L140.661 60.0698" stroke="black" stroke-miterlimit="10"/>
<path d="M125.081 54.75L118.311 71.47" stroke="black" stroke-miterlimit="10"/>
<path d="M134.231 54.0596L127.411 74.6296" stroke="black" stroke-miterlimit="10"/>
<path d="M150.85 65.4297L148.07 75.1197" stroke="black" stroke-miterlimit="10"/>
<path d="M131.661 75.7196L155.891 68.5996" stroke="black" stroke-miterlimit="10"/>
<path d="M143.23 41.01L154.11 17.77" stroke="black" stroke-miterlimit="10"/>
<path d="M137.001 29.9399L170.031 26.3799" stroke="black" stroke-miterlimit="10"/>
<path d="M171.01 28.1597L160.24 54.0597" stroke="black" stroke-miterlimit="10"/>
<path d="M145.311 41.5996L182.191 38.8296" stroke="black" stroke-miterlimit="10"/>
<path d="M181.001 42.4897L171.511 64.6297" stroke="black" stroke-miterlimit="10"/>
<path d="M157.07 53.1L184.86 50.5" stroke="black" stroke-miterlimit="10"/>
<path d="M168.44 62.17L191.28 61.48" stroke="black" stroke-miterlimit="10"/>
<path d="M190.59 63.1099L183.57 83.4299" stroke="black" stroke-miterlimit="10"/>
<path d="M181.501 73.7397L202.361 71.4697" stroke="black" stroke-miterlimit="10"/>
<path d="M198.501 73.27L194.051 88.18" stroke="black" stroke-miterlimit="10"/>
<path d="M182.19 86.5897L205.62 81.1597" stroke="black" stroke-miterlimit="10"/>
</svg>
