<?xml version="1.0" encoding="UTF-8"?>
<svg id="Calque_6" data-name="Calque 6" xmlns="http://www.w3.org/2000/svg" viewBox="0 0 720 1456">
  <defs>
    <style>
      .cls-1, .cls-2, .cls-3, .cls-4, .cls-5 {
        stroke: #000;
        stroke-miterlimit: 10;
      }

      .cls-1, .cls-3 {
        fill: none;
      }

      .cls-2 {
        fill: #763725;
        stroke-width: 3px;
      }

      .cls-3, .cls-4 {
        stroke-width: 2px;
      }

      .cls-4 {
        fill: #b59f81;
      }

      .cls-5 {
        fill: #adc1c9;
      }
    </style>
  </defs>
  <ellipse class="cls-5" cx="276.04" cy="445.48" rx="153.84" ry="65.44"/>
  <g>
    <path class="cls-2" d="M232.4,410.86c-2.88.56-11.98,2.72-18.09,10.92-7.96,10.69-6.09,25.26-.1,34.5,7.5,11.58,20.86,13.86,27.69,15.03,10.16,1.74,10.71-1.3,20.57-.4,21.54,1.97,26.13,17.12,46.55,17.83,4.45.15,13.4.46,19.9-5.5,7.82-7.18,8.8-20.43,5.17-29.86-3.98-10.36-10.76-8.97-19.96-22.48-8.1-11.9-4.44-15.32-12.11-24.72-2.32-2.84-14.05-16.5-29.46-15.72-2.13.11-7.49,2.13-18.21,6.18-8.32,3.14-12.06,4.97-12.65,8.1-.65,3.46,3.02,6.14,1.98,7.71-.71,1.07-3.37,1.31-11.27-1.58Z"/>
    <path class="cls-4" d="M300.57,459.58c.55-.63-7.3-9.09-16.08-16.68-15.6-13.47-23.4-20.21-25.55-21.7-.71-.5-2.85-1.96-4.44-4.67-.51-.87-3.14-5.32-1.71-9.62,1.1-3.33,3.66-3.65,8.44-8.64,2.28-2.38,3.86-4.57,4.8-5.97-4.68,1.57-8.77,3.16-12.18,4.59-10.11,4.23-11.73,5.99-12.13,7.84-.74,3.47,3.02,6.13,1.98,7.71-.68,1.03-3.24,1.34-11.27-1.58-2.9.72-7.03,2.13-11.34,5.01-2.79,1.87-4.93,3.87-6.5,5.57,2.08,1.3,5.47,3.02,9.79,3.39,6.56.56,9.98-2.53,14.24-3.63,7.72-1.99,14.26,3.52,35.67,19.63,16.63,12.51,25.75,19.36,26.3,18.73Z"/>
    <path class="cls-3" d="M209.56,432.65c3.93,7.73,10.62,17.6,21.92,22.97,14.65,6.97,21.12-1.17,40.34,4.88,17.25,5.43,20.65,14.68,37.18,15.16,4.76.14,11.8.24,17.01-4.61,8.5-7.93,4.93-22.41,4.61-23.6"/>
    <line class="cls-1" x1="218.66" y1="440.23" x2="250.1" y2="430.84"/>
    <line class="cls-1" x1="238.73" y1="427.08" x2="231.22" y2="447.05"/>
    <line class="cls-1" x1="231.22" y1="448.74" x2="262.37" y2="439.62"/>
    <line class="cls-1" x1="246.79" y1="434.3" x2="240.02" y2="451.01"/>
    <line class="cls-1" x1="255.94" y1="433.61" x2="249.12" y2="454.18"/>
    <line class="cls-1" x1="272.56" y1="444.98" x2="269.78" y2="454.67"/>
    <line class="cls-1" x1="253.37" y1="455.26" x2="277.59" y2="448.14"/>
    <line class="cls-1" x1="264.94" y1="420.55" x2="275.81" y2="397.32"/>
    <line class="cls-1" x1="258.71" y1="409.48" x2="291.73" y2="405.92"/>
    <line class="cls-1" x1="292.72" y1="407.7" x2="281.94" y2="433.61"/>
    <line class="cls-1" x1="267.01" y1="421.15" x2="303.9" y2="418.38"/>
    <line class="cls-1" x1="302.71" y1="422.04" x2="293.22" y2="444.18"/>
    <line class="cls-1" x1="278.78" y1="432.65" x2="306.56" y2="430.05"/>
    <line class="cls-1" x1="290.15" y1="441.71" x2="312.99" y2="441.02"/>
    <line class="cls-1" x1="312.3" y1="442.65" x2="305.28" y2="462.97"/>
    <line class="cls-1" x1="303.2" y1="453.28" x2="324.07" y2="451.01"/>
    <line class="cls-1" x1="320.21" y1="452.81" x2="315.76" y2="467.72"/>
    <line class="cls-1" x1="303.9" y1="466.14" x2="327.33" y2="460.7"/>
  </g>
</svg>