<svg width="302" height="170" viewBox="0 0 302 170" fill="none" xmlns="http://www.w3.org/2000/svg">
<path d="M162 46.21C162 50.2 158.76 53.4399 154.77 53.4399C150.78 53.4399 147.67 50.33 147.55 46.45C147.54 46.37 147.54 46.29 147.54 46.21C147.54 42.21 150.77 38.98 154.77 38.98C158.77 38.98 162 42.21 162 46.21Z" fill="#5FA038" stroke="black" stroke-miterlimit="10"/>
<path d="M300.56 72.72C300.56 80.87 297.75 88.71 292.58 96.03C272.44 124.48 216.45 144.95 150.53 144.95C81.19 144.95 22.83 122.31 5.64 91.54C2.29 85.54 0.5 79.23 0.5 72.72C0.5 32.83 67.67 0.5 150.54 0.5C233.41 0.5 300.58 32.84 300.58 72.72H300.56Z" fill="#8EA6AD" stroke="black" stroke-miterlimit="10"/>
<path d="M150.52 168.64C238.32 168.64 287.78 102.66 292.57 96.02C277.5 107.77 224.86 145.83 147.83 144.94C74.11 144.08 23.91 108.07 8.45996 96.02C13.26 102.66 62.7099 168.64 150.51 168.64H150.52Z" fill="#ADC1C9" stroke="black" stroke-miterlimit="10"/>
<path d="M183.021 38.43L191.371 53.94L198.521 50.95L200.31 34.86L195.241 32.77L189.88 35.45V42.01L186 36.05L183.021 38.43Z" fill="#75AC44" stroke="black" stroke-miterlimit="10"/>
<path d="M208.8 28.29C208.35 32.07 204.92 34.78 201.14 34.34C199.84 34.19 198.66 33.6899 197.7 32.9299C196.8 36.9699 192.79 39.74 188.35 39.22C186.76 39.03 185.33 38.45 184.14 37.58C182.33 39.67 179.26 40.85 175.96 40.46C171.02 39.88 167.42 36 167.92 31.79C168.18 29.55 169.55 27.6699 171.52 26.4999C170.97 25.3699 170.73 24.06 170.89 22.71C171.34 18.92 174.77 16.21 178.55 16.65C179.37 16.75 180.15 16.99 180.84 17.34C181.59 13.92 184.83 11.57 188.38 11.98C190.7 12.25 192.61 13.6499 193.65 15.5599C194.97 14.6599 196.61 14.2299 198.31 14.4299C201.74 14.8299 204.28 17.69 204.39 21.04C207.28 22.14 209.17 25.09 208.79 28.29H208.8Z" fill="#487C3A" stroke="black" stroke-miterlimit="10"/>
<path d="M219.701 42.5298L212.311 58.5098L218.991 62.4498L232.941 54.2098L231.571 48.8998L226.201 46.2198L220.961 50.1598L223.401 43.4798L219.701 42.5298Z" fill="#75AC44" stroke="black" stroke-miterlimit="10"/>
<path d="M243.29 57.0598C240 58.9798 235.77 57.8598 233.86 54.5598C233.2 53.4298 232.89 52.1799 232.92 50.9599C229.15 52.6699 224.52 51.1198 222.28 47.2598C221.48 45.8798 221.08 44.3799 221.07 42.9099C218.31 42.7199 215.53 40.9799 213.85 38.0999C211.35 33.7999 212.29 28.5999 215.96 26.4599C217.91 25.3199 220.23 25.2899 222.36 26.1599C222.93 25.0399 223.84 24.0598 225.01 23.3798C228.31 21.4598 232.54 22.5798 234.45 25.8698C234.87 26.5898 235.14 27.3498 235.27 28.1198C238.45 26.6698 242.28 27.8498 244.08 30.9298C245.26 32.9498 245.29 35.3199 244.38 37.2899C245.9 37.8099 247.22 38.8499 248.09 40.3399C249.82 43.3199 249.07 47.0699 246.46 49.1699C247.32 52.1399 246.09 55.4199 243.3 57.0499L243.29 57.0598Z" fill="#487C3A" stroke="black" stroke-miterlimit="10"/>
<path d="M150.451 31.2397C154.444 31.2397 157.681 28.0028 157.681 24.0098C157.681 20.0167 154.444 16.7798 150.451 16.7798C146.458 16.7798 143.221 20.0167 143.221 24.0098C143.221 28.0028 146.458 31.2397 150.451 31.2397Z" fill="#5FA038" stroke="black" stroke-miterlimit="10"/>
<path d="M150.45 36.5402C150.45 40.4102 147.58 43.5702 143.94 43.8402C143.76 43.8602 143.59 43.8702 143.41 43.8702C140.59 43.8702 138.15 42.1502 137.03 39.6502C136.59 38.7102 136.36 37.6602 136.36 36.5402C136.36 32.5002 139.52 29.2202 143.41 29.2202C144.48 29.2202 145.5 29.4702 146.41 29.9302C146.77 30.1002 147.13 30.3002 147.45 30.5602C147.45 30.5702 147.45 30.5802 147.47 30.5802C149.27 31.9002 150.45 34.0702 150.45 36.5402Z" fill="#5FA038" stroke="black" stroke-miterlimit="10"/>
<path d="M163.42 38.48C167.413 38.48 170.65 35.243 170.65 31.25C170.65 27.257 167.413 24.02 163.42 24.02C159.427 24.02 156.19 27.257 156.19 31.25C156.19 35.243 159.427 38.48 163.42 38.48Z" fill="#5FA038" stroke="black" stroke-miterlimit="10"/>
<path d="M169.24 52.48C173.233 52.48 176.47 49.243 176.47 45.25C176.47 41.257 173.233 38.02 169.24 38.02C165.247 38.02 162.01 41.257 162.01 45.25C162.01 49.243 165.247 52.48 169.24 52.48Z" fill="#5FA038" stroke="black" stroke-miterlimit="10"/>
<path d="M172.361 64.2798C176.354 64.2798 179.591 61.0429 179.591 57.0499C179.591 53.0568 176.354 49.8198 172.361 49.8198C168.368 49.8198 165.131 53.0568 165.131 57.0499C165.131 61.0429 168.368 64.2798 172.361 64.2798Z" fill="#5FA038" stroke="black" stroke-miterlimit="10"/>
<path d="M177.88 78.75C181.873 78.75 185.11 75.513 185.11 71.52C185.11 67.527 181.873 64.29 177.88 64.29C173.887 64.29 170.65 67.527 170.65 71.52C170.65 75.513 173.887 78.75 177.88 78.75Z" fill="#5FA038" stroke="black" stroke-miterlimit="10"/>
<path d="M186.83 69.6802C190.823 69.6802 194.06 66.4432 194.06 62.4502C194.06 58.4572 190.823 55.2202 186.83 55.2202C182.837 55.2202 179.6 58.4572 179.6 62.4502C179.6 66.4432 182.837 69.6802 186.83 69.6802Z" fill="#5FA038" stroke="black" stroke-miterlimit="10"/>
<path d="M199.531 65.8701C203.524 65.8701 206.761 62.6332 206.761 58.6401C206.761 54.6471 203.524 51.4102 199.531 51.4102C195.538 51.4102 192.301 54.6471 192.301 58.6401C192.301 62.6332 195.538 65.8701 199.531 65.8701Z" fill="#5FA038" stroke="black" stroke-miterlimit="10"/>
<path d="M214.78 47.98C214.78 51.97 211.54 55.21 207.55 55.21C203.56 55.21 200.32 51.97 200.32 47.98C200.32 43.99 203.56 40.75 207.55 40.75C211.54 40.75 214.78 43.99 214.78 47.98Z" fill="#5FA038" stroke="black" stroke-miterlimit="10"/>
<path d="M137.36 110.51C137.9 104.79 144.45 102.54 159.02 94.1801C186.75 78.2701 185.01 73.8001 198.61 68.6401C207.3 65.3401 223.7 61.2101 248.01 67.3501L272.31 87.9202C246.51 78.1702 229.94 81.6801 221.03 85.0901C209.36 89.5501 193.46 100.47 180.55 112.92C171.72 121.44 167.87 127.23 161.24 128.42C160.67 128.52 160.08 128.59 159.46 128.62C148.71 129.2 136.57 118.74 137.35 110.51H137.36Z" fill="#F49971" stroke="black" stroke-miterlimit="10"/>
<path d="M224.46 112.82C221.12 113.87 219.14 116.18 218.74 116.61C215.54 120.07 200.96 124.11 161.24 128.42C161.04 128.44 162.65 128.38 165.12 127.28C167.86 126.06 169.59 124.32 172.37 121.41C175.59 118.04 177.2 116.35 177.87 115.56C182.49 110.1 188.47 105.76 194.05 101.27C199.99 96.4798 208.95 90.2998 221.74 84.8298C226.62 83.1998 233.29 81.5898 241.29 81.3698C255.32 80.9898 266.27 85.0998 272.3 87.9298V94.9398C247.64 111.55 237.35 114.48 232.93 113.13C232.14 112.89 228.47 111.57 224.45 112.83L224.46 112.82Z" fill="#ED7C44" stroke="black" stroke-miterlimit="10"/>
<path d="M161.83 68.8501C160.89 69.3201 159.82 69.6601 158.67 69.8501C158.36 69.9001 158.05 69.9401 157.74 69.9601C158.04 69.7601 158.35 69.59 158.68 69.44C159.68 68.99 160.75 68.8001 161.83 68.8501Z" stroke="black" stroke-miterlimit="10"/>
<path d="M167.65 89.2702C166.91 89.6002 166.15 89.8002 165.36 89.8502C162.9 92.8402 155.38 96.9802 150.67 98.9502C149.9 99.2702 146.16 100.8 142.08 103.91C140.52 105.1 139.48 105.91 138.56 107.2C136.06 110.75 136.47 115.18 136.96 117.66C132.84 112.69 126.64 111.87 123.38 114.45C120.59 116.66 120.68 120.8 120.71 121.46C108.18 123.55 113.95 125.78 113.95 125.78C83.7802 123.24 61.5202 115.23 47.5702 108.95C25.1202 98.8302 22.5502 92.4002 21.8102 89.8802C21.6702 89.3902 21.5402 88.8902 21.4502 88.3902C19.6002 86.6102 18.4502 84.1102 18.4502 81.3402C18.4502 78.3002 19.8302 75.5902 21.9902 73.7802C22.5002 71.2002 24.0102 68.9902 26.1002 67.5602C26.0702 67.2402 26.0602 66.9202 26.0602 66.5902C26.0602 62.1202 28.7802 58.4202 32.3602 57.6502C32.7002 54.3002 34.7202 51.4502 37.5602 49.9502C38.2102 45.6102 41.7002 42.2002 46.0802 41.6702C47.0202 38.6002 49.2102 36.4502 51.7702 36.4502C52.8302 36.4502 53.8302 36.8202 54.7102 37.4802C55.0702 33.2502 57.6702 29.9602 60.8402 29.9602C62.4902 29.9602 63.9902 30.8502 65.1102 32.3102C65.7102 28.4802 68.1802 25.6102 71.1402 25.6102C72.7402 25.6102 74.2002 26.4502 75.3002 27.8302C75.9702 24.1502 78.3902 21.4402 81.2702 21.4402C84.1502 21.4402 86.4202 24.0002 87.1802 27.5202C87.8802 23.6302 90.9702 20.7002 94.6802 20.7002C98.0502 20.7002 100.91 23.1302 101.93 26.5002C102.75 23.1302 105.06 20.7002 107.78 20.7002C110.31 20.7002 112.48 22.8002 113.42 25.8002C117.45 23.5502 122.02 24.0702 123.71 26.9802C124.69 28.6902 124.47 30.8402 123.32 32.8102C123.32 32.8102 123.34 32.8002 123.35 32.7902C127.12 29.9702 131.83 29.9102 133.87 32.6502C135.02 34.1902 135.07 36.3002 134.22 38.3402C135.05 38.7202 135.86 39.1102 136.67 39.5202C137.82 41.9902 140.32 43.6902 143.22 43.6902C143.4 43.6902 143.58 43.6802 143.76 43.6602C145.07 44.5402 146.34 45.4702 147.55 46.4502C147.67 50.3302 150.85 53.4402 154.77 53.4402C155.88 54.7502 156.92 56.1202 157.9 57.5402C162.05 57.2902 165.6 59.3202 166.09 62.4002C166.41 64.3802 165.39 66.3602 163.54 67.7902C163.76 68.3002 163.97 68.8002 164.16 69.3002C166.89 70.2302 169.45 72.5702 170.93 75.8502C173.4 81.3302 171.93 87.3402 167.65 89.2702Z" fill="#EFD3AC" stroke="black" stroke-miterlimit="10"/>
<path d="M101.131 36.4446C101.645 34.8697 99.1426 32.6392 95.5412 31.4628C91.9398 30.2864 88.6032 30.6095 88.0888 32.1844C87.5743 33.7594 90.0767 35.9898 93.6781 37.1662C97.2795 38.3427 100.616 38.0196 101.131 36.4446Z" fill="#C8A176" stroke="black" stroke-miterlimit="10"/>
<path d="M124.733 58.0057C125.248 56.4307 122.745 54.2003 119.144 53.0239C115.542 51.8474 112.206 52.1705 111.691 53.7455C111.177 55.3204 113.679 57.5509 117.281 58.7273C120.882 59.9037 124.219 59.5806 124.733 58.0057Z" fill="#C8A176" stroke="black" stroke-miterlimit="10"/>
<path d="M146.376 79.9905C146.89 78.4156 144.388 76.1851 140.786 75.0087C137.185 73.8323 133.848 74.1554 133.334 75.7303C132.819 77.3053 135.322 79.5357 138.923 80.7121C142.525 81.8886 145.861 81.5655 146.376 79.9905Z" fill="#C8A176" stroke="black" stroke-miterlimit="10"/>
<path d="M122.374 73.7205C122.888 72.1455 120.386 69.9151 116.784 68.7387C113.183 67.5623 109.846 67.8853 109.332 69.4603C108.817 71.0353 111.32 73.2657 114.921 74.4421C118.523 75.6185 121.859 75.2955 122.374 73.7205Z" fill="#C8A176" stroke="black" stroke-miterlimit="10"/>
<path d="M87.7624 60.8401C88.2769 59.2652 85.7744 57.0347 82.173 55.8583C78.5716 54.6819 75.2351 55.005 74.7206 56.5799C74.2061 58.1549 76.7086 60.3853 80.31 61.5617C83.9114 62.7382 87.2479 62.4151 87.7624 60.8401Z" fill="#C8A176" stroke="black" stroke-miterlimit="10"/>
<path d="M54.1201 51.4102C54.1201 49.7502 57.1901 48.4102 60.9801 48.4102C64.7701 48.4102 67.8401 49.7502 67.8401 51.4102C67.8401 53.0702 64.7701 54.4102 60.9801 54.4102C57.1901 54.4102 54.1201 53.0702 54.1201 51.4102Z" fill="#C8A176" stroke="black" stroke-miterlimit="10"/>
<path d="M71.2598 82.4102C71.2598 80.7502 74.3298 79.4102 78.1198 79.4102C81.9098 79.4102 84.9798 80.7502 84.9798 82.4102C84.9798 84.0702 81.9098 85.4102 78.1198 85.4102C74.3298 85.4102 71.2598 84.0702 71.2598 82.4102Z" fill="#C8A176" stroke="black" stroke-miterlimit="10"/>
<path d="M44.8809 71.52C44.8809 69.86 47.9509 68.52 51.7409 68.52C55.5309 68.52 58.6009 69.86 58.6009 71.52C58.6009 73.18 55.5309 74.52 51.7409 74.52C47.9509 74.52 44.8809 73.18 44.8809 71.52Z" fill="#C8A176" stroke="black" stroke-miterlimit="10"/>
<path d="M107.78 94.77C107.78 93.11 110.85 91.77 114.64 91.77C118.43 91.77 121.5 93.11 121.5 94.77C121.5 96.43 118.43 97.77 114.64 97.77C110.85 97.77 107.78 96.43 107.78 94.77Z" fill="#C8A176" stroke="black" stroke-miterlimit="10"/>
<path d="M90.6753 101.482C90.9838 99.8545 88.2163 97.963 84.4938 97.2576C80.7714 96.5522 77.5037 97.3001 77.1953 98.9279C76.8868 100.556 79.6543 102.447 83.3768 103.153C87.0992 103.858 90.3669 103.11 90.6753 101.482Z" fill="#C8A176" stroke="black" stroke-miterlimit="10"/>
<path d="M126.91 126.67C130.903 126.67 134.14 123.433 134.14 119.44C134.14 115.447 130.903 112.21 126.91 112.21C122.917 112.21 119.68 115.447 119.68 119.44C119.68 123.433 122.917 126.67 126.91 126.67Z" fill="#5FA038" stroke="black" stroke-miterlimit="10"/>
<path d="M137.32 129.33C141.313 129.33 144.55 126.093 144.55 122.1C144.55 118.107 141.313 114.87 137.32 114.87C133.327 114.87 130.09 118.107 130.09 122.1C130.09 126.093 133.327 129.33 137.32 129.33Z" fill="#5FA038" stroke="black" stroke-miterlimit="10"/>
<path d="M118.22 132.33C122.213 132.33 125.45 129.093 125.45 125.1C125.45 121.107 122.213 117.87 118.22 117.87C114.227 117.87 110.99 121.107 110.99 125.1C110.99 129.093 114.227 132.33 118.22 132.33Z" fill="#5FA038" stroke="black" stroke-miterlimit="10"/>
</svg>
