<svg width="309" height="132" viewBox="0 0 309 132" fill="none" xmlns="http://www.w3.org/2000/svg">
<path d="M154.34 131.38C239.303 131.38 308.18 102.082 308.18 65.9401C308.18 29.7985 239.303 0.5 154.34 0.5C69.3765 0.5 0.5 29.7985 0.5 65.9401C0.5 102.082 69.3765 131.38 154.34 131.38Z" fill="#ADC1C9" stroke="black" stroke-miterlimit="10"/>
<path d="M277.861 44.1901C271.621 31.5301 254.061 56.89 254.061 56.89C254.061 56.89 284.091 56.8501 277.861 44.1901Z" fill="#699B12" stroke="black" stroke-miterlimit="10"/>
<path d="M254.22 60.0099C254.22 60.0099 274.35 37.72 260.78 33.84C247.21 29.96 254.22 60.0099 254.22 60.0099Z" fill="#699B12" stroke="black" stroke-miterlimit="10"/>
<path d="M48.4302 55.9199C52.4232 55.9199 55.6602 52.683 55.6602 48.6899C55.6602 44.6969 52.4232 41.46 48.4302 41.46C44.4372 41.46 41.2002 44.6969 41.2002 48.6899C41.2002 52.683 44.4372 55.9199 48.4302 55.9199Z" fill="#5FA038" stroke="black" stroke-miterlimit="10"/>
<path d="M41.2007 68.3701C45.1937 68.3701 48.4307 65.1332 48.4307 61.1401C48.4307 57.1471 45.1937 53.9102 41.2007 53.9102C37.2077 53.9102 33.9707 57.1471 33.9707 61.1401C33.9707 65.1332 37.2077 68.3701 41.2007 68.3701Z" fill="#5FA038" stroke="black" stroke-miterlimit="10"/>
<path d="M52.7495 78.1201C56.7426 78.1201 59.9795 74.8832 59.9795 70.8901C59.9795 66.8971 56.7426 63.6602 52.7495 63.6602C48.7565 63.6602 45.5195 66.8971 45.5195 70.8901C45.5195 74.8832 48.7565 78.1201 52.7495 78.1201Z" fill="#5FA038" stroke="black" stroke-miterlimit="10"/>
<path d="M67.5796 41.1901C71.5726 41.1901 74.8096 37.9531 74.8096 33.9601C74.8096 29.9671 71.5726 26.73 67.5796 26.73C63.5866 26.73 60.3496 29.9671 60.3496 33.9601C60.3496 37.9531 63.5866 41.1901 67.5796 41.1901Z" fill="#5FA038" stroke="black" stroke-miterlimit="10"/>
<path d="M61.3999 63.1602C65.3929 63.1602 68.6299 59.9232 68.6299 55.9302C68.6299 51.9372 65.3929 48.7002 61.3999 48.7002C57.4069 48.7002 54.1699 51.9372 54.1699 55.9302C54.1699 59.9232 57.4069 63.1602 61.3999 63.1602Z" fill="#5FA038" stroke="black" stroke-miterlimit="10"/>
<path d="M74.8199 51.7803C78.8129 51.7803 82.0499 48.5433 82.0499 44.5503C82.0499 40.5573 78.8129 37.3203 74.8199 37.3203C70.8268 37.3203 67.5898 40.5573 67.5898 44.5503C67.5898 48.5433 70.8268 51.7803 74.8199 51.7803Z" fill="#5FA038" stroke="black" stroke-miterlimit="10"/>
<path d="M70.3394 74.29C74.3324 74.29 77.5694 71.0531 77.5694 67.0601C77.5694 63.067 74.3324 59.8301 70.3394 59.8301C66.3464 59.8301 63.1094 63.067 63.1094 67.0601C63.1094 71.0531 66.3464 74.29 70.3394 74.29Z" fill="#5FA038" stroke="black" stroke-miterlimit="10"/>
<path d="M70.3394 88.9601C74.3324 88.9601 77.5694 85.723 77.5694 81.73C77.5694 77.737 74.3324 74.5 70.3394 74.5C66.3464 74.5 63.1094 77.737 63.1094 81.73C63.1094 85.723 66.3464 88.9601 70.3394 88.9601Z" fill="#5FA038" stroke="black" stroke-miterlimit="10"/>
<path d="M88.8999 33.9503C92.8929 33.9503 96.1299 30.7134 96.1299 26.7203C96.1299 22.7273 92.8929 19.4902 88.8999 19.4902C84.9069 19.4902 81.6699 22.7273 81.6699 26.7203C81.6699 30.7134 84.9069 33.9503 88.8999 33.9503Z" fill="#5FA038" stroke="black" stroke-miterlimit="10"/>
<path d="M242.44 48.7902C245.63 49.0002 248.89 50.0501 251.82 51.6601C257.78 54.9301 262.42 60.4902 262.56 65.9302C262.64 68.9102 261.45 75.2102 228.42 93.2102C206.61 105.1 186.91 115.84 183.55 111.55C180.76 107.98 190.87 96.1202 206.06 78.3102C231.1 48.9402 239.17 48.5802 242.43 48.7902H242.44Z" fill="#FFB000" stroke="black" stroke-miterlimit="10"/>
<path d="M204.43 89.9399C204.43 89.9399 211.59 90.5399 213.23 94.5599" stroke="black" stroke-miterlimit="10"/>
<path d="M213.23 79.25C213.23 79.25 224.07 80.21 226.55 86.67" stroke="black" stroke-miterlimit="10"/>
<path d="M222.15 69.54C222.15 69.54 229.31 70.14 230.95 74.16" stroke="black" stroke-miterlimit="10"/>
<path d="M159.41 49.4301L166.92 78.28L179.88 76.25L189.29 50.49L181.79 45.02L171.89 47.28L169.25 58.0701L165.28 46.7001L159.41 49.4301Z" fill="#75AC44" stroke="black" stroke-miterlimit="10"/>
<path d="M205.88 43.1099C203.63 49.1499 196.9 52.2299 190.85 49.9799C188.77 49.2099 187.03 47.91 185.76 46.28C182.66 52.57 174.95 55.5099 167.86 52.8699C165.32 51.9199 163.2 50.3899 161.6 48.4799C157.79 51.1999 152.27 51.9 146.98 49.93C139.1 46.99 134.73 39.17 137.24 32.44C138.58 28.85 141.58 26.32 145.29 25.18C144.84 23.1 144.97 20.85 145.77 18.69C148.03 12.63 154.76 9.54999 160.8 11.81C162.12 12.3 163.3 13.0099 164.3 13.8699C166.91 8.55993 173.19 5.98002 178.85 8.09002C182.56 9.47002 185.14 12.53 186.08 16.09C188.62 15.14 191.48 15.08 194.21 16.1C199.68 18.14 202.72 23.86 201.55 29.41C205.87 32.37 207.79 37.9899 205.88 43.1099Z" fill="#487C3A" stroke="black" stroke-miterlimit="10"/>
<path d="M144.101 80.4098L162.511 94.7598L169.591 87.3198L163.161 66.8398L155.901 67.0098L150.821 73.1298L154.331 81.0898L146.441 75.9298L144.101 80.4098Z" fill="#75AC44" stroke="black" stroke-miterlimit="10"/>
<path d="M169.96 54.34C171.44 59.17 168.73 64.2899 163.9 65.7699C162.24 66.2799 160.54 66.2999 158.97 65.8899C160.04 71.2699 156.65 76.7799 150.99 78.5199C148.96 79.1399 146.91 79.1999 145.01 78.7699C143.94 82.2699 140.84 85.3399 136.62 86.6399C130.32 88.5699 123.88 85.7899 122.23 80.4199C121.35 77.5599 122.01 74.55 123.77 72.07C122.5 70.99 121.51 69.5299 120.98 67.8099C119.5 62.9699 122.21 57.8499 127.04 56.3699C128.09 56.0499 129.16 55.9299 130.19 55.9799C129.28 51.4299 131.95 46.84 136.47 45.46C139.44 44.55 142.5 45.2199 144.77 46.9899C145.9 45.1899 147.64 43.7899 149.82 43.1199C154.19 41.7799 158.8 43.8899 160.72 47.8899C164.81 47.6699 168.68 50.25 169.94 54.34H169.96Z" fill="#487C3A" stroke="black" stroke-miterlimit="10"/>
<path d="M111.16 76.7001C110.55 80.1201 108.38 92.48 99.4999 95.25C98.6299 95.52 94.2199 96.9 91.0099 94.63C84.7899 90.25 88.9499 76.38 89.6199 74.13C89.9599 72.99 94.8699 56.21 102.66 56.4C105.48 56.47 107.55 58.74 108.48 59.77C113.23 65 111.84 72.8201 111.15 76.7001H111.16Z" fill="#E92700" stroke="black" stroke-miterlimit="10"/>
<path d="M135.87 81.35C135.74 83.43 135.02 94.76 127.51 97.67C127.27 97.76 122.86 99.3899 118.99 97.1399C113.23 93.7999 113.87 84.4899 114.25 78.7599C114.55 74.1399 114.9 68.8999 118.94 64.7499C119.97 63.6899 123.57 60.01 127.38 60.67C133.43 61.72 136.4 73.08 135.88 81.34L135.87 81.35Z" fill="#E92700" stroke="black" stroke-miterlimit="10"/>
<path d="M109.49 61.4999C111.11 60.7699 113.15 60.2199 115.1 60.9099C117.92 61.9099 119.97 65.28 119.62 64.69C117.02 60.4 117.02 55.38 119.56 52.1C121.26 49.91 123.61 49.0999 124.78 48.7999C124.89 47.6699 124.99 46.5399 125.1 45.4099C123.36 45.3199 120.37 45.4499 117.35 47.1199C109.83 51.2799 109.51 60.9099 109.5 61.4999H109.49Z" fill="#699B12" stroke="black" stroke-miterlimit="10"/>
<path d="M102.66 56.39C102.98 55.78 103.46 55.1001 104.19 54.5701C106.98 52.5101 110.84 54.28 111.06 54.39C110.72 55.23 110.39 56.19 110.11 57.26C109.63 59.09 109.44 60.74 109.38 62.12C109.13 61.39 108.47 59.77 106.87 58.38C105.2 56.93 103.42 56.53 102.66 56.4V56.39Z" fill="#E92700" stroke="black" stroke-miterlimit="10"/>
<path d="M118.28 55.3201C119.35 54.4801 122.29 55.2 130.38 61.89C129.89 61.61 127.45 60.2601 124.36 61.0401C121.35 61.7901 119.84 64 119.52 64.5C118.98 63.73 118.13 62.32 117.78 60.37C117.67 59.73 117.05 56.2801 118.28 55.3301V55.3201Z" fill="#E92700" stroke="black" stroke-miterlimit="10"/>
<path d="M122.44 81.3299C122.3 84.4499 121.87 94.3799 115.18 97.2199C111.86 98.6299 107.76 97.9798 104.96 95.9798C98.7098 91.5198 100.48 81.3998 100.91 78.7498C102.29 70.3898 108.21 60.0399 113.99 60.6599C119.6 61.2499 122.81 73.0199 122.44 81.3299Z" fill="#E92700" stroke="black" stroke-miterlimit="10"/>
</svg>
