<?xml version="1.0" encoding="UTF-8"?>
<svg id="Calque_6" data-name="Calque 6" xmlns="http://www.w3.org/2000/svg" viewBox="0 0 720 1456">
  <defs>
    <style>
      .cls-1 {
        fill: #75ac44;
      }

      .cls-1, .cls-2, .cls-3, .cls-4, .cls-5, .cls-6, .cls-7, .cls-8 {
        stroke: #000;
        stroke-miterlimit: 10;
      }

      .cls-2 {
        fill: none;
      }

      .cls-3 {
        fill: #e92700;
      }

      .cls-4 {
        fill: #ffb000;
      }

      .cls-5 {
        fill: #699b12;
      }

      .cls-6 {
        fill: #5fa038;
      }

      .cls-7 {
        fill: #487c3a;
      }

      .cls-8 {
        fill: #adc1c9;
      }
    </style>
  </defs>
  <ellipse class="cls-8" cx="369.96" cy="1221.34" rx="153.84" ry="65.44"/>
  <path class="cls-5" d="M493.47,1199.59c-6.24-12.66-23.8,12.7-23.8,12.7,0,0,30.03-.04,23.8-12.7"/>
  <path class="cls-5" d="M469.83,1215.41s20.13-22.29,6.56-26.17-6.56,26.17-6.56,26.17Z"/>
  <circle class="cls-6" cx="264.05" cy="1204.1" r="7.23"/>
  <circle class="cls-6" cx="256.81" cy="1216.54" r="7.23"/>
  <circle class="cls-6" cx="268.37" cy="1226.3" r="7.23"/>
  <circle class="cls-6" cx="283.2" cy="1189.36" r="7.23"/>
  <circle class="cls-6" cx="277.01" cy="1211.33" r="7.23"/>
  <circle class="cls-6" cx="290.43" cy="1199.95" r="7.23"/>
  <circle class="cls-6" cx="285.96" cy="1222.46" r="7.23"/>
  <circle class="cls-6" cx="285.96" cy="1237.14" r="7.23"/>
  <circle class="cls-6" cx="304.51" cy="1182.13" r="7.23"/>
  <path class="cls-4" d="M458.06,1204.2c3.19.21,6.45,1.26,9.38,2.87,5.96,3.27,10.6,8.83,10.74,14.27.08,2.98-1.11,9.28-34.14,27.28-21.81,11.89-41.51,22.63-44.87,18.34-2.79-3.57,7.32-15.43,22.51-33.24,25.04-29.37,33.11-29.73,36.37-29.52Z"/>
  <path class="cls-2" d="M420.04,1245.34s7.16.6,8.8,4.62"/>
  <path class="cls-2" d="M428.84,1234.66s10.84.96,13.32,7.42"/>
  <path class="cls-2" d="M437.76,1224.95s7.16.6,8.8,4.62"/>
  <g>
    <polygon class="cls-1" points="375.03 1204.83 382.53 1233.68 395.49 1231.65 404.9 1205.89 397.41 1200.43 387.5 1202.68 384.87 1213.47 380.89 1202.11 375.03 1204.83"/>
    <path class="cls-7" d="M421.5,1198.51c-2.25,6.04-8.98,9.12-15.03,6.87-2.08-.77-3.82-2.07-5.09-3.7-3.1,6.29-10.81,9.23-17.9,6.59-2.54-.95-4.66-2.48-6.26-4.39-3.81,2.72-9.33,3.42-14.62,1.45-7.88-2.94-12.25-10.76-9.74-17.49,1.34-3.59,4.34-6.12,8.05-7.26-.45-2.08-.32-4.33.48-6.49,2.26-6.06,8.99-9.14,15.03-6.88,1.32.49,2.5,1.2,3.5,2.06,2.61-5.31,8.89-7.89,14.55-5.78,3.71,1.38,6.29,4.44,7.23,8,2.54-.95,5.4-1.01,8.13.01,5.47,2.04,8.51,7.76,7.34,13.31,4.32,2.96,6.24,8.58,4.33,13.7Z"/>
  </g>
  <g>
    <polygon class="cls-1" points="359.71 1235.82 378.12 1250.17 385.21 1242.73 378.78 1222.24 371.51 1222.42 366.43 1228.54 369.94 1236.5 362.05 1231.33 359.71 1235.82"/>
    <path class="cls-7" d="M385.57,1209.75c1.48,4.83-1.23,9.95-6.06,11.43-1.66.51-3.36.53-4.93.12,1.07,5.38-2.32,10.89-7.98,12.63-2.03.62-4.08.68-5.98.25-1.07,3.5-4.17,6.57-8.39,7.87-6.3,1.93-12.74-.85-14.39-6.22-.88-2.86-.22-5.87,1.54-8.35-1.27-1.08-2.26-2.54-2.79-4.26-1.48-4.84,1.23-9.96,6.06-11.44,1.05-.32,2.12-.44,3.15-.39-.91-4.55,1.76-9.14,6.28-10.52,2.97-.91,6.03-.24,8.3,1.53,1.13-1.8,2.87-3.2,5.05-3.87,4.37-1.34,8.98.77,10.9,4.77,4.09-.22,7.96,2.36,9.22,6.45Z"/>
  </g>
  <g>
    <path class="cls-3" d="M326.77,1232.1c-.61,3.42-2.78,15.78-11.66,18.55-.87.27-5.28,1.65-8.49-.62-6.22-4.38-2.06-18.25-1.39-20.5.34-1.14,5.25-17.92,13.04-17.73,2.82.07,4.89,2.34,5.82,3.37,4.75,5.23,3.36,13.05,2.67,16.93Z"/>
    <path class="cls-3" d="M351.49,1236.75c-.13,2.08-.85,13.41-8.36,16.32-.24.09-4.65,1.72-8.52-.53-5.76-3.34-5.12-12.65-4.74-18.38.3-4.62.65-9.86,4.69-14.01,1.03-1.06,4.63-4.74,8.44-4.08,6.05,1.05,9.02,12.41,8.5,20.67Z"/>
    <path class="cls-5" d="M325.1,1216.9c1.62-.73,3.66-1.28,5.61-.59,2.82,1,4.87,4.37,4.52,3.78-2.6-4.29-2.6-9.31-.06-12.59,1.7-2.19,4.05-3,5.22-3.3.11-1.13.21-2.26.32-3.39-1.74-.09-4.73.04-7.75,1.71-7.52,4.16-7.84,13.79-7.85,14.38Z"/>
    <path class="cls-3" d="M318.28,1211.8c.32-.61.8-1.29,1.53-1.82,2.79-2.06,6.65-.29,6.87-.18-.34.84-.67,1.8-.95,2.87-.48,1.83-.67,3.48-.73,4.86-.25-.73-.91-2.35-2.51-3.74-1.67-1.45-3.45-1.85-4.21-1.98Z"/>
    <path class="cls-3" d="M333.89,1210.72c1.07-.84,4.01-.12,12.1,6.57-.49-.28-2.93-1.63-6.02-.85-3.01.75-4.52,2.96-4.84,3.46-.54-.77-1.39-2.18-1.74-4.13-.11-.64-.73-4.09.5-5.04Z"/>
    <path class="cls-3" d="M338.05,1236.74c-.14,3.12-.57,13.05-7.26,15.89-3.32,1.41-7.42.76-10.22-1.24-6.25-4.46-4.48-14.58-4.05-17.23,1.38-8.36,7.3-18.71,13.08-18.09,5.61.59,8.82,12.36,8.45,20.67Z"/>
  </g>
</svg>