<?xml version="1.0" encoding="UTF-8"?>
<svg id="Calque_6" data-name="Calque 6" xmlns="http://www.w3.org/2000/svg" viewBox="0 0 720 1456">
  <defs>
    <style>
      .cls-1, .cls-2, .cls-3, .cls-4, .cls-5, .cls-6, .cls-7, .cls-8 {
        stroke: #000;
        stroke-miterlimit: 10;
      }

      .cls-1, .cls-6 {
        fill: none;
      }

      .cls-2 {
        fill: #ffb000;
      }

      .cls-3 {
        fill: #699b12;
      }

      .cls-4 {
        fill: #5fa038;
      }

      .cls-5 {
        fill: #763725;
        stroke-width: 3px;
      }

      .cls-6, .cls-7 {
        stroke-width: 2px;
      }

      .cls-7 {
        fill: #b59f81;
      }

      .cls-8 {
        fill: #adc1c9;
      }
    </style>
  </defs>
  <ellipse class="cls-8" cx="394.11" cy="635.32" rx="153.84" ry="65.44"/>
  <path class="cls-3" d="M517.62,613.57c-6.24-12.66-23.8,12.7-23.8,12.7,0,0,30.03-.04,23.8-12.7"/>
  <path class="cls-3" d="M493.98,629.4s20.13-22.29,6.56-26.17-6.56,26.17-6.56,26.17Z"/>
  <g>
    <path class="cls-5" d="M347.21,602.03c-2.43.47-10.1,2.29-15.25,9.21-6.71,9.01-5.13,21.3-.09,29.09,6.32,9.76,17.59,11.69,23.35,12.67,8.57,1.47,9.03-1.09,17.34-.33,18.16,1.66,22.03,14.44,39.25,15.03,3.75.13,11.3.39,16.78-4.64,6.59-6.05,7.42-17.23,4.36-25.18-3.35-8.73-9.07-7.56-16.83-18.96-6.83-10.03-3.74-12.91-10.21-20.84-1.95-2.39-11.85-13.91-24.84-13.26-1.79.09-6.31,1.8-15.35,5.21-7.01,2.65-10.17,4.19-10.67,6.83-.55,2.92,2.55,5.18,1.67,6.5-.6.9-2.84,1.1-9.5-1.33Z"/>
    <path class="cls-7" d="M404.69,643.11c.46-.53-6.15-7.67-13.56-14.06-13.16-11.36-19.73-17.04-21.54-18.3-.6-.42-2.4-1.65-3.75-3.94-.43-.74-2.64-4.49-1.45-8.12.93-2.81,3.09-3.07,7.11-7.28,1.92-2.01,3.26-3.85,4.05-5.03-3.95,1.33-7.39,2.66-10.27,3.87-8.53,3.57-9.89,5.05-10.23,6.61-.63,2.93,2.55,5.17,1.67,6.5-.57.87-2.73,1.13-9.5-1.33-2.44.61-5.93,1.8-9.56,4.22-2.36,1.58-4.16,3.26-5.48,4.7,1.75,1.09,4.61,2.55,8.26,2.86,5.53.47,8.41-2.13,12.01-3.06,6.51-1.67,12.02,2.97,30.08,16.56,14.02,10.55,21.71,16.32,22.17,15.79Z"/>
    <path class="cls-6" d="M327.95,620.4c3.32,6.52,8.95,14.84,18.49,19.37,12.35,5.88,17.81-.99,34.02,4.11,14.54,4.58,17.41,12.38,31.35,12.78,4.01.12,9.95.2,14.34-3.89,7.17-6.69,4.15-18.9,3.89-19.9"/>
    <line class="cls-1" x1="335.63" y1="626.79" x2="362.14" y2="618.87"/>
    <line class="cls-1" x1="352.55" y1="615.7" x2="346.21" y2="632.55"/>
    <line class="cls-1" x1="346.21" y1="633.96" x2="372.48" y2="626.27"/>
    <line class="cls-1" x1="359.35" y1="621.79" x2="353.63" y2="635.88"/>
    <line class="cls-1" x1="367.06" y1="621.21" x2="361.31" y2="638.55"/>
    <line class="cls-1" x1="381.07" y1="630.79" x2="378.73" y2="638.97"/>
    <line class="cls-1" x1="364.89" y1="639.47" x2="385.32" y2="633.46"/>
    <line class="cls-1" x1="374.65" y1="610.2" x2="383.82" y2="590.61"/>
    <line class="cls-1" x1="369.39" y1="600.86" x2="397.24" y2="597.86"/>
    <line class="cls-1" x1="398.07" y1="599.36" x2="388.99" y2="621.21"/>
    <line class="cls-1" x1="376.4" y1="610.7" x2="407.5" y2="608.37"/>
    <line class="cls-1" x1="406.5" y1="611.45" x2="398.49" y2="630.12"/>
    <line class="cls-1" x1="386.32" y1="620.4" x2="409.75" y2="618.21"/>
    <line class="cls-1" x1="395.91" y1="628.04" x2="415.17" y2="627.46"/>
    <line class="cls-1" x1="414.58" y1="628.84" x2="408.66" y2="645.97"/>
    <line class="cls-1" x1="406.91" y1="637.8" x2="424.51" y2="635.88"/>
    <line class="cls-1" x1="421.25" y1="637.4" x2="417.5" y2="649.97"/>
    <line class="cls-1" x1="407.5" y1="648.64" x2="427.26" y2="644.05"/>
  </g>
  <circle class="cls-4" cx="288.2" cy="618.08" r="7.23"/>
  <circle class="cls-4" cx="280.96" cy="630.52" r="7.23"/>
  <circle class="cls-4" cx="292.52" cy="640.28" r="7.23"/>
  <circle class="cls-4" cx="307.34" cy="603.34" r="7.23"/>
  <circle class="cls-4" cx="301.16" cy="625.31" r="7.23"/>
  <circle class="cls-4" cx="314.58" cy="613.93" r="7.23"/>
  <circle class="cls-4" cx="310.11" cy="636.44" r="7.23"/>
  <circle class="cls-4" cx="310.11" cy="651.12" r="7.23"/>
  <circle class="cls-4" cx="328.66" cy="596.11" r="7.23"/>
  <path class="cls-2" d="M482.2,618.18c3.19.21,6.45,1.26,9.38,2.87,5.96,3.27,10.6,8.83,10.74,14.27.08,2.98-1.11,9.28-34.14,27.28-21.81,11.89-41.51,22.63-44.87,18.34-2.79-3.57,7.32-15.43,22.51-33.24,25.04-29.37,33.11-29.73,36.37-29.52Z"/>
  <path class="cls-1" d="M444.19,659.32s7.16.6,8.8,4.62"/>
  <path class="cls-1" d="M452.99,648.64s10.84.96,13.32,7.42"/>
  <path class="cls-1" d="M461.91,638.93s7.16.6,8.8,4.62"/>
</svg>