<svg width="310" height="89" viewBox="0 0 310 89" fill="none" xmlns="http://www.w3.org/2000/svg">
<path d="M248.218 69.2764C248.218 74.7548 252.659 79.1965 258.145 79.1965C263.631 79.1965 268.065 74.7548 268.065 69.2764C268.065 63.7979 263.624 59.3486 258.145 59.3486C252.667 59.3486 248.218 63.7904 248.218 69.2764Z" stroke="black" stroke-width="2" stroke-miterlimit="10"/>
<path d="M248.218 69.2764C248.218 74.7548 252.659 79.1965 258.145 79.1965C263.631 79.1965 268.065 74.7548 268.065 69.2764C268.065 63.7979 263.624 59.3486 258.145 59.3486C252.667 59.3486 248.218 63.7904 248.218 69.2764Z" stroke="black" stroke-width="2" stroke-miterlimit="10"/>
<path d="M258.144 50.6914C268.405 50.6914 276.729 59.0074 276.729 69.2756C276.729 72.9229 275.677 76.328 273.853 79.1958C270.562 84.4018 264.758 87.8523 258.144 87.8523C251.531 87.8523 245.727 84.4018 242.435 79.1958C240.612 76.328 239.56 72.9229 239.56 69.2756C239.56 59.0074 247.884 50.6914 258.144 50.6914ZM258.144 79.1958C263.623 79.1958 268.064 74.7541 268.064 69.2756C268.064 63.7972 263.623 59.3479 258.144 59.3479C252.666 59.3479 248.217 63.7897 248.217 69.2756C248.217 74.7616 252.658 79.1958 258.144 79.1958Z" fill="#ADADAD" stroke="black" stroke-width="2" stroke-miterlimit="10"/>
<path d="M248.218 69.2764C248.218 74.7548 252.659 79.1965 258.145 79.1965C263.631 79.1965 268.065 74.7548 268.065 69.2764C268.065 63.7979 263.624 59.3486 258.145 59.3486C252.667 59.3486 248.218 63.7904 248.218 69.2764Z" fill="#303030" stroke="black" stroke-width="2" stroke-miterlimit="10"/>
<path d="M0.99969 36.1406V70.1158C0.99969 75.1099 5.0858 79.196 10.0799 79.196H46.6203C44.7967 76.3282 43.7449 72.9231 43.7449 69.2759C43.7449 63.8883 46.0377 59.0304 49.7076 55.6404C53.0219 52.5682 57.4561 50.6916 62.3292 50.6916C72.3023 50.6916 80.4519 58.5536 80.8907 68.4284C80.9059 68.7084 80.9134 68.9883 80.9134 69.2759C80.9134 72.9231 79.8616 76.3282 78.038 79.196H242.436C240.612 76.3282 239.56 72.9231 239.56 69.2759C239.56 59.0076 247.884 50.6916 258.145 50.6916C268.405 50.6916 276.729 59.0076 276.729 69.2759C276.729 72.9231 275.677 76.3282 273.854 79.196H301.208C302.532 79.196 303.796 78.9085 304.931 78.3864C306.55 75.4732 307.693 72.3707 308.26 69.1018C308.464 67.9063 310.409 56.4879 303.75 47.3622C299.233 41.165 292.4 38.9706 268.065 34.1656C252.84 31.1616 240.007 28.778 230.503 27.0603C218.139 11.972 180.592 1 136.189 1C91.787 1 54.2402 11.972 41.8759 27.0603H10.0799C5.0858 27.0603 0.99969 31.1464 0.99969 36.1406Z" fill="#303030" stroke="black" stroke-width="2" stroke-miterlimit="10"/>
<path d="M49.7083 55.6402C53.0226 52.568 57.4568 50.6914 62.3298 50.6914C72.303 50.6914 80.4525 58.5534 80.8914 68.4282C80.9065 68.7081 80.9141 68.9881 80.9141 69.2756C80.9141 72.9229 79.8623 76.328 78.0387 79.1958C74.7471 84.4018 68.9433 87.8523 62.3298 87.8523C55.7164 87.8523 49.9126 84.4018 46.621 79.1958C44.7974 76.328 43.7456 72.9229 43.7456 69.2756C43.7456 63.888 46.0384 59.0301 49.7083 55.6402ZM61.3461 79.1958C66.8246 79.1958 71.2663 74.7541 71.2663 69.2756C71.2663 67.8909 70.9788 66.5743 70.4718 65.3787C68.9584 61.8299 65.4398 59.3479 61.3461 59.3479C59.9841 59.3479 58.6826 59.6203 57.5022 60.1197C53.923 61.618 51.4184 65.1517 51.4184 69.2756C51.4184 74.7541 55.8602 79.1958 61.3461 79.1958Z" fill="#ADADAD" stroke="black" stroke-width="2" stroke-miterlimit="10"/>
<path d="M51.4187 69.2764C51.4187 74.7548 55.8605 79.1965 61.3464 79.1965C66.8324 79.1965 71.2666 74.7548 71.2666 69.2764C71.2666 67.8916 70.9791 66.575 70.4721 65.3795C68.9587 61.8306 65.4401 59.3486 61.3464 59.3486C59.9844 59.3486 58.6829 59.6211 57.5025 60.1205C53.9233 61.6187 51.4187 65.1524 51.4187 69.2764Z" fill="#303030" stroke="black" stroke-width="2" stroke-miterlimit="10"/>
<path d="M0.999793 36.1407C3.18662 36.2315 6.53119 36.2845 10.6097 35.9667C15.5131 35.5883 17.1248 35.0132 18.5928 36.1407C21.3093 38.2367 21.332 44.5172 18.5928 46.6813C17.1399 47.8315 15.6038 47.2791 9.90597 46.9083C6.20577 46.6662 3.12608 46.6511 0.999793 46.6813V36.1407Z" fill="#BF0010" stroke="black" stroke-width="2" stroke-miterlimit="10"/>
<path d="M299.014 47.1353H278.712L282.767 55.2545H299.46L299.014 47.1353Z" fill="#FFF988" stroke="#303030" stroke-width="2" stroke-miterlimit="10"/>
<path d="M147.638 32.1304C147.638 32.1304 155 71.1678 147.638 79.1963" stroke="black" stroke-width="2" stroke-miterlimit="10"/>
<path d="M218.926 35.1797C216.648 31.2677 212.494 28.6798 204.261 23.6781C196.778 19.1228 187.387 13.5007 173.668 9.75506C162.273 6.63751 153.442 6.34237 144.142 6.0851C132.732 5.76729 116.569 5.32084 96.9554 11.3819C88.1854 14.0908 75.2536 19.1682 61.3457 29.096C113.875 31.1239 166.397 33.1594 218.926 35.1873" fill="#17C1FC"/>
<path d="M218.926 35.1797C216.648 31.2677 212.494 28.6798 204.261 23.6781C196.778 19.1228 187.387 13.5007 173.668 9.75506C162.273 6.63751 153.442 6.34237 144.142 6.0851C132.732 5.76729 116.569 5.32084 96.9554 11.3819C88.1854 14.0908 75.2536 19.1682 61.3457 29.096C113.875 31.1239 166.397 33.1594 218.926 35.1873" stroke="black" stroke-width="2" stroke-miterlimit="10"/>
<path d="M98.9072 79.1963C98.9072 79.1963 65.1817 30.9424 80.9132 29.8452" stroke="black" stroke-width="2" stroke-miterlimit="10"/>
<path d="M147.184 6.16846L153.51 32.6525L141.547 32.1304L140.866 6.16846H147.184Z" fill="#303030" stroke="black" stroke-width="2" stroke-miterlimit="10"/>
<path d="M157.854 40.0981H166.397C168.06 40.0981 169.408 41.4465 169.408 43.1098C169.408 44.7731 168.06 46.1214 166.397 46.1214H157.854C156.19 46.1214 154.842 44.7731 154.842 43.1098C154.842 41.4465 156.19 40.0981 157.854 40.0981Z" stroke="black" stroke-width="2" stroke-miterlimit="10"/>
<path d="M86.9676 37.6616H95.73C97.2345 37.6616 98.4541 38.8812 98.4541 40.3857C98.4541 41.8901 97.2345 43.1098 95.73 43.1098H86.9676C85.4631 43.1098 84.2435 41.8901 84.2435 40.3857C84.2435 38.8812 85.4631 37.6616 86.9676 37.6616Z" stroke="black" stroke-width="2" stroke-miterlimit="10"/>
<path d="M220.394 79.1962C220.394 79.1962 228.74 43.4124 217.125 35.1797" stroke="black" stroke-width="2" stroke-miterlimit="10"/>
</svg>
